<svg width="188" height="60" viewBox="0 0 188 60" fill="none" xmlns="http://www.w3.org/2000/svg">
<path d="M126.91 21.6895L188.01 0.119141L178.75 16.4492L126.9 21.6895H126.91Z" fill="#E01D3A"/>
<path d="M126.91 21.6899L75.91 7.33984L71.3301 15.4697L126.91 21.6997V21.6899Z" fill="#F79724"/>
<path d="M126.91 21.6899L113.8 9.30957L118.15 1.01953L126.91 21.6899Z" fill="#FCDA00"/>
<path d="M21.22 46.1294H25.33L18.5199 59.0991H14.4099L21.22 46.1294ZM42.5499 46.2192H49.4299L50.98 55.7993H51.38L56.38 46.2192H60.23L53.51 59.1895H46.7899L45.1499 49.5093H44.75L39.75 59.1895H35.73L42.5399 46.2192H42.5499ZM72.5499 54.9092H76.33C76 55.5692 75.93 55.9694 76.09 56.1294C76.2 56.2094 76.3099 56.2891 76.4199 56.3691C76.5799 56.3691 76.82 56.4395 77.24 56.4395H82.24C82.6 56.3895 82.9499 56.3092 83.2999 56.1992C83.6499 55.9792 83.93 55.6691 84.12 55.3091C84.28 54.9791 84.3599 54.7391 84.2799 54.5791C84.2099 54.3391 83.7899 54.3394 83.0599 54.3394C82.0699 54.3394 81.08 54.2892 80.1 54.1792C78.55 54.1092 77.5599 54.019 77.0699 54.019C76.2599 54.009 75.46 53.8691 74.7 53.6191C74.21 53.2891 74.0399 52.7995 74.2999 51.9795C74.4999 51.3895 74.7399 50.8193 75.0299 50.2593C75.5799 49.0293 76.43 47.9592 77.5 47.1392C78.2 46.6992 78.9899 46.3995 79.7999 46.2495C81.6199 46.0395 83.4599 45.9593 85.2999 46.0093C86.5899 45.9893 87.8699 46.0494 89.1499 46.1694C89.8099 46.2294 90.44 46.4894 90.96 46.8994C91.29 47.3894 91.12 48.2891 90.47 49.5991C90.34 49.8091 90.2299 50.0293 90.1399 50.2593H86.36C86.5 50.0693 86.58 49.8391 86.6 49.5991C86.67 49.2691 86.5299 49.0295 86.0299 48.9395C84.9899 48.8595 83.9499 48.8391 82.9099 48.8691C81.9199 48.8291 80.93 48.8893 79.95 49.0293C79.5399 49.1893 79.19 49.4691 78.96 49.8491C78.72 50.2491 78.7199 50.5794 79.0299 50.6694C80.3599 50.8194 81.7099 50.8992 83.0499 50.9092C85.2599 50.9792 86.5699 51.0694 87.1599 51.1494C87.6199 51.2094 88.06 51.3393 88.48 51.5493C88.72 51.7193 88.86 51.9893 88.88 52.2793C88.95 52.7693 88.6399 53.5995 88.1499 54.7495C87.6699 55.7995 86.9999 56.7493 86.1799 57.5493C85.5499 58.1293 84.79 58.549 83.97 58.769C83.15 59.009 81.0999 59.0993 77.8099 59.0093C75.8399 59.0093 74.4499 58.9391 73.5399 58.8491C72.5499 58.6891 71.8999 58.5191 71.6599 58.1191C71.4199 57.5691 71.4199 56.9494 71.6599 56.3994C71.8199 56.0694 71.99 55.6692 72.23 55.1792L72.5599 54.9194L72.5499 54.9092ZM89.0399 54.9092H92.8199C92.4899 55.5692 92.42 55.9694 92.58 56.1294C92.69 56.2094 92.7999 56.2891 92.9099 56.3691C93.0699 56.3691 93.31 56.4395 93.73 56.4395H98.73C99.09 56.4195 99.4499 56.3492 99.7899 56.1992C100.14 55.9792 100.42 55.6691 100.61 55.3091C100.77 54.9791 100.85 54.7391 100.77 54.5791C100.7 54.3391 100.28 54.3394 99.5499 54.3394C99.0599 54.3394 98.07 54.2692 96.59 54.1792C95.04 54.1092 94.0499 54.019 93.5599 54.019C92.7499 54.009 91.9499 53.8691 91.1899 53.6191C90.6999 53.2891 90.5299 52.7995 90.7899 51.9795C90.9899 51.3895 91.2299 50.8193 91.5199 50.2593C92.0699 49.0293 92.92 47.9592 93.99 47.1392C94.69 46.6992 95.4799 46.3995 96.2899 46.2495C98.1099 46.0395 99.9499 45.9593 101.79 46.0093C103.08 45.9893 104.36 46.0494 105.64 46.1694C106.3 46.2194 106.94 46.4694 107.45 46.8994C107.78 47.3894 107.61 48.2891 106.96 49.5991C106.83 49.8091 106.72 50.0293 106.63 50.2593H102.85C102.99 50.0693 103.07 49.8391 103.09 49.5991C103.16 49.2691 103.02 49.0295 102.52 48.9395C101.48 48.8595 100.44 48.8391 99.3999 48.8691C98.4099 48.8291 97.4199 48.8893 96.4399 49.0293C96.0299 49.1893 95.68 49.4691 95.45 49.8491C95.21 50.2491 95.2099 50.5794 95.5199 50.6694C96.8499 50.8194 98.1999 50.8992 99.5399 50.9092C101.75 50.9792 103.06 51.0694 103.65 51.1494C104.11 51.2094 104.55 51.3393 104.97 51.5493C105.21 51.7193 105.35 51.9893 105.37 52.2793C105.44 52.7693 105.13 53.5995 104.64 54.7495C104.16 55.7995 103.49 56.7493 102.67 57.5493C102.04 58.1293 101.28 58.549 100.46 58.769C99.64 59.009 97.5899 59.0993 94.2999 59.0093C92.8999 59.0293 91.51 58.9691 90.12 58.8491C89.13 58.6891 88.48 58.5191 88.24 58.1191C88 57.5991 88 56.9995 88.24 56.4795C88.4 56.1495 88.5699 55.7493 88.8099 55.2593L89.0499 54.9292L89.0399 54.9092ZM109.62 46.3892H124.14L123.41 47.9395H116.93L111.03 59.3291H109.32L115.22 47.9395L108.9 47.8691L109.63 46.3892H109.62ZM125.13 46.3892H126.85L120.04 59.3594H118.32L125.13 46.3892ZM128.72 46.3892H132.08L133.3 57.3794L145.77 46.4795H149.29L142.48 59.3491H140.76L146.75 48.1191H146.02L132.98 59.3291H131.5L130.35 48.0093H129.53L123.64 59.3394H121.92L128.71 46.3994L128.72 46.3892ZM144.39 59.3291L151.2 46.4595H163.67L162.85 48.0093H152.11L149.97 51.8594L160.38 51.9292L159.56 53.4092H149.22L146.85 57.7793L157.75 57.8491L156.93 59.3291H144.38H144.39ZM7.84998 51.7192H4L0.149902 59.0991H4L6.29993 54.5894H15.3899L16.9399 51.6294L7.84998 51.7192ZM6.85999 46.1191L5.21997 49.1494H18.75L20.2999 46.1191H6.85999ZM25.0699 59.0894H29.1799L33.0299 51.7095H28.9199L25.0699 59.0894ZM26.22 46.1191L24.5 49.4092H40L41.72 46.1191H26.22ZM55.33 59.1694H69.5199L71.1599 56.0493H56.97L55.33 59.1694ZM58.0299 54.019H71.5599L73.0399 51.2192H59.51L58.0299 54.019ZM62.1399 46.2192L60.5 49.2495H74.6L76.1499 46.2192H62.1499H62.1399ZM130.37 27.8491H135.61L136.6 25.8091L131.43 25.7393L130.37 27.8491ZM158.58 25.8091L157.52 27.8491H162.03L163.18 25.8091H158.57H158.58ZM169.48 29.4893C167.56 29.5393 165.7 30.1693 164.15 31.2993C162.44 32.3893 161.03 33.8794 160.04 35.6494C160.04 35.6494 157.67 40.0693 157.5 40.4893H162.5L163.32 38.769H160.03L161.75 35.6494C162.49 34.3294 163.52 33.1994 164.78 32.3594C165.92 31.5694 167.25 31.1191 168.63 31.0391H170.18L163.79 43.1895H156.08L155.26 44.9092H161.81C162.67 44.8892 163.5 44.5994 164.18 44.0894C164.88 43.5894 165.49 42.9793 165.99 42.2793C165.99 42.2793 172.54 29.8095 172.71 29.4795H169.47M161.12 29.2393H157.83C155.91 29.2893 154.05 29.9193 152.5 31.0493C150.69 32.1993 148.55 35.2294 147.66 36.8794C147.6 36.9494 147.54 37.0291 147.5 37.1191H149.14C149.18 37.0291 149.23 36.9494 149.3 36.8794C149.96 35.7294 151.77 33.0993 153.08 32.2993L155.05 31.3091L156.93 30.9795H158.48L154.53 38.7793H137.48C137.48 38.7793 139.78 34.5094 139.95 34.1094H138.31C138.07 34.4394 135.84 38.7793 135.84 38.7793H115.16C115.16 38.7793 118.35 32.7892 118.52 32.3892H116.88C116.39 33.2792 114.08 37.7192 114.08 37.7192C113.76 38.2692 113.69 38.9293 113.92 39.5293C114.16 40.0993 114.65 40.3491 115.47 40.3491C115.47 40.3491 155.08 40.4194 155.48 40.4194L161.12 29.2393ZM68.7899 42.4395H66.25L64.9299 44.9795H72.0699L73.3899 42.4395H68.7899ZM108.96 25.8794C108.96 25.8794 103.23 36.7792 103.06 37.1992H97.73C97.97 36.8692 103.63 25.9692 103.63 25.9692H100.34C100.34 25.9692 94.6099 36.8692 94.4399 37.1992H86.6399C86.8799 36.8692 89.4399 31.2993 89.4399 31.2993H86.1499C86.1499 31.2993 83.52 36.8692 83.35 37.1992L57.6 37.1294C57.84 36.7994 63.5 25.8994 63.5 25.8994H60.21L52.5 40.4194L101.04 40.5791C102.16 40.5491 103.25 40.179 104.16 39.519C105.13 38.909 105.92 38.0593 106.46 37.0493L112.36 25.8892H108.95V25.8691L108.96 25.8794ZM114.29 25.8794L106.49 40.6392H109.78L117.58 25.8892H114.29V25.8794ZM49.59 28.5093H56.5699L57.8899 25.9692H50.6799L49.36 28.5093H49.59ZM52.0599 29.2393C49.9499 29.3093 47.8999 29.9995 46.1599 31.2095C44.7999 32.0795 43.5999 33.1995 42.6399 34.4995H46.2999C47.6399 33.2695 49.3299 32.4991 51.1399 32.2891C51.0699 32.4491 48.8399 36.7095 48.6699 36.9595C48.4299 36.9595 22.92 36.8892 22.36 36.8892C22.6 36.3992 26.47 29.0894 26.47 29.0894H22.2899C20.1599 29.1594 18.1099 29.8694 16.3899 31.1294C15.0199 31.9994 13.83 33.1194 12.87 34.4194H16.46C16.81 34.0494 17.2299 33.7493 17.6799 33.5293C18.6199 32.8593 19.72 32.4594 20.87 32.3794H21.4399C21.1999 32.8694 19.1399 36.7292 19.1399 36.8892H11.5299L9.81995 40.2495L50.58 40.3193L56.3099 29.2495H52.0599V29.2295V29.2393ZM21.3099 28.5093H27.1399L28.46 25.9692H21.1599L19.84 28.4395L21.3199 28.5093H21.3099Z" fill="#383838"/>
</svg>
