<svg width="67" height="70" viewBox="0 0 67 70" fill="none" xmlns="http://www.w3.org/2000/svg">
<path d="M11.97 69.1096V59.0796C11.97 54.6396 10.5 50.3596 7.78003 46.8396C4.13003 42.1296 1.96997 36.2196 1.96997 29.8096C1.96997 14.4196 14.45 1.93945 29.84 1.93945C44.09 1.93945 55.83 12.6294 57.49 26.4294C57.68 27.9894 58.0799 29.5395 58.6899 30.9895L64.61 45.1895C64.98 46.0795 64.88 47.0894 64.34 47.8894C63.8 48.6894 62.9001 49.1594 61.9301 49.1494L57.71 49.0896V60.5195C57.71 62.0995 56.43 63.3794 54.85 63.3794H46.3C45.54 63.3794 44.81 63.6795 44.27 64.2195C43.73 64.7595 43.4299 65.4895 43.4399 66.2495L43.46 69.0896" stroke="#00C08B" stroke-width="3" stroke-miterlimit="10"/>
<path d="M43.3301 43.5497C37.5301 50.1597 25.6102 51.3696 18.7802 44.4496C13.3102 38.9096 13.4602 29.3797 18.9302 23.8397C23.3002 19.4097 31.2102 19.3695 34.8802 23.4195C38.6102 27.5395 38.3402 33.4295 34.7702 36.6795" stroke="#00C08B" stroke-width="3" stroke-miterlimit="10"/>
<path d="M16.27 18.9597C22.07 12.3497 33.9899 11.1398 40.8199 18.0598C46.2899 23.5998 46.14 33.1296 40.67 38.6696C36.3 43.0996 28.39 43.1398 24.72 39.0898C20.99 34.9698 21.26 29.0798 24.83 25.8298" stroke="#00C08B" stroke-width="3" stroke-miterlimit="10"/>
</svg>
