<svg width="72" height="74" viewBox="0 0 72 74" fill="none" xmlns="http://www.w3.org/2000/svg">
<path d="M54.7202 25.7107C60.8502 28.0907 65.8602 32.8307 68.3202 38.9707C71.0602 45.8407 70.3902 53.7708 66.5002 60.0708C59.3002 71.7208 43.1102 74.7406 32.2302 66.4106C25.5302 61.2906 22.2302 52.9806 23.1902 44.6606C23.3302 43.4606 21.4402 43.4706 21.3102 44.6606C20.4002 52.6006 23.2202 60.6206 29.0302 66.1306C34.1602 71.0006 41.2302 73.5407 48.2902 73.0307C55.5102 72.5107 62.2302 68.9006 66.6402 63.1606C71.5102 56.8306 73.1202 48.3807 70.9102 40.7007C68.6602 32.8707 62.7602 26.8106 55.2402 23.8806C54.1102 23.4406 53.6202 25.2606 54.7402 25.6906L54.7202 25.7107Z" fill="#0E426B" stroke="#00416B" stroke-width="0.25" stroke-miterlimit="10"/>
<path d="M33.1501 42.461C32.4101 49.211 32.9501 56.381 35.4601 62.741C37.1401 66.991 40.1701 72.101 45.0901 72.981C49.6301 73.791 53.3001 70.4611 55.5201 66.8611C58.8901 61.3811 60.0801 54.581 60.1401 48.231C60.2201 41.041 58.8701 33.0409 54.5101 27.1309C53.8001 26.1709 52.1701 27.1011 52.8901 28.0811C56.4001 32.8411 57.8101 38.9911 58.1701 44.8111C58.5501 50.7911 57.8701 57.0609 55.5601 62.6309C54.0301 66.3209 51.0601 71.241 46.4901 71.231C42.1101 71.231 39.2201 66.6809 37.6501 63.1509C34.8001 56.7609 34.2701 49.341 35.0201 42.461C35.1501 41.261 33.2701 41.271 33.1401 42.461H33.1501Z" fill="#0E426B" stroke="#00416B" stroke-width="0.25" stroke-miterlimit="10"/>
<path d="M43.4002 38.5605C51.1602 38.9905 59.8402 38.1004 66.6102 33.9804C67.0002 33.7404 67.2602 33.1004 66.9502 32.6904C63.8802 28.6604 59.9502 25.7304 55.2302 23.8904C54.1002 23.4504 53.6102 25.2704 54.7302 25.7004C58.9402 27.3404 62.5802 30.0303 65.3302 33.6303C65.4402 33.2003 65.5602 32.7705 65.6702 32.3405C59.1702 36.2905 50.8502 37.0704 43.4102 36.6604C42.2002 36.5904 42.2002 38.4805 43.4102 38.5405L43.4002 38.5605Z" fill="#0E426B" stroke="#00416B" stroke-width="0.25" stroke-miterlimit="10"/>
<path d="M65.3102 61.8203C60.8702 67.6903 53.8602 71.2302 46.4902 71.2302C39.1202 71.2302 32.1102 67.6903 27.6702 61.8203C27.5602 62.2503 27.4402 62.6804 27.3302 63.1104C32.9702 59.6904 40.0002 58.7002 46.4902 58.7002C52.9802 58.7002 60.0102 59.7004 65.6502 63.1104C66.6902 63.7404 67.6302 62.1102 66.6002 61.4902C60.6902 57.9002 53.3102 56.8203 46.4902 56.8203C39.6802 56.8203 32.3002 57.9002 26.3802 61.4902C25.9802 61.7302 25.7302 62.3703 26.0402 62.7803C30.8902 69.1903 38.4002 73.1204 46.4802 73.1204C54.5602 73.1204 62.0702 69.1903 66.9202 62.7803C67.6502 61.8103 66.0202 60.8803 65.3002 61.8303L65.3102 61.8203Z" fill="#0E426B" stroke="#00416B" stroke-width="0.25" stroke-miterlimit="10"/>
<path d="M22.0501 48.6709H70.94C72.15 48.6709 72.15 46.791 70.94 46.791H22.0501C20.8401 46.791 20.8401 48.6709 22.0501 48.6709Z" fill="#0E426B" stroke="#00416B" stroke-width="0.25" stroke-miterlimit="10"/>
<path d="M45.5503 35.2805V72.1704C45.5503 73.3804 47.4303 73.3804 47.4303 72.1704V35.2805C47.4303 34.0705 45.5503 34.0705 45.5503 35.2805Z" fill="#0E426B" stroke="#00416B" stroke-width="0.25" stroke-miterlimit="10"/>
<path d="M54.2901 0.730545C48.0601 8.13055 41.8301 15.5205 35.6101 22.9205C35.0401 23.6005 34.4701 24.2805 33.9002 24.9605C33.7802 25.1005 32.9901 25.8206 33.0201 26.0106C33.0301 26.1006 33.3901 25.8906 33.3301 25.8306C33.2901 25.8006 32.9101 25.9205 32.8601 25.9305C32.1801 26.0705 31.5001 26.2107 30.8201 26.3507C25.3001 27.4807 19.7801 28.6005 14.2601 29.7305C9.83014 30.6305 5.39015 31.5405 0.960147 32.4405C1.27015 32.9605 1.57013 33.4906 1.88013 34.0106C8.11013 26.6106 14.3401 19.2206 20.5601 11.8206C21.1301 11.1406 21.7001 10.4606 22.2701 9.78059C22.3901 9.64059 23.1802 8.92054 23.1502 8.73055C23.1402 8.64054 22.7802 8.85048 22.8402 8.91048C22.8802 8.94048 23.2601 8.82062 23.3101 8.81062C23.9901 8.67062 24.6701 8.53046 25.3501 8.39046C30.8701 7.26046 36.3901 6.14057 41.9101 5.01057C46.3401 4.11057 50.7801 3.20061 55.2101 2.30061C56.4001 2.06061 55.8901 0.240555 54.7101 0.490555C45.1801 2.43055 35.6501 4.38063 26.1101 6.32063C24.9001 6.57063 23.4701 6.66066 22.3001 7.10066C21.4601 7.42066 20.8101 8.59056 20.2601 9.24055C16.6001 13.5906 12.9402 17.9406 9.28016 22.2806C6.37016 25.7406 3.4501 29.2005 0.540103 32.6705C-0.0698966 33.3905 0.510147 34.4406 1.46015 34.2406C10.9901 32.3006 20.5201 30.3505 30.0601 28.4105C31.2701 28.1605 32.7001 28.0704 33.8701 27.6304C34.7101 27.3104 35.3601 26.1406 35.9101 25.4906C39.5701 21.1406 43.2301 16.7905 46.8901 12.4505C49.8001 8.99052 52.7201 5.53062 55.6301 2.06062C56.4101 1.14062 55.0801 -0.199455 54.3001 0.730545H54.2901Z" fill="#0E426B" stroke="#00416B" stroke-width="0.25" stroke-miterlimit="10"/>
<path d="M44.94 13.3005L48.88 19.9304C49.39 20.7804 50.24 21.8205 50.37 22.8405C50.56 24.3105 49.25 25.6003 48.39 26.6403C47.53 27.6703 46.62 28.6605 45.66 29.5905C41.78 33.3805 37.06 36.3304 31.95 38.1404C29.49 39.0104 26.65 39.9405 24.02 40.0305C22.32 40.0805 21.66 38.9904 20.92 37.7404C19.43 35.2404 17.95 32.7404 16.46 30.2404C15.84 29.2004 14.21 30.1504 14.84 31.1904C16.33 33.6904 17.81 36.1904 19.3 38.6904C20.01 39.8804 20.67 41.0105 22.04 41.5605C23.3 42.0705 24.55 41.8804 25.85 41.6604C27.37 41.4104 28.88 41.0603 30.36 40.6303C35.95 39.0003 41.15 36.1205 45.53 32.2805C47.68 30.3905 49.76 28.2406 51.37 25.8706C52.55 24.1306 52.45 22.2605 51.43 20.5105C49.83 17.7805 48.2 15.0706 46.58 12.3506C45.96 11.3106 44.33 12.2605 44.96 13.3005H44.94Z" fill="#0E426B" stroke="#00416B" stroke-width="0.25" stroke-miterlimit="10"/>
<path d="M10.1301 46.6406C11.4001 49.0306 7.92009 51.1608 6.50009 48.8108C5.09009 46.4708 8.6301 44.3706 10.1301 46.6406C10.7901 47.6506 12.4201 46.7007 11.7501 45.6907C10.5501 43.8807 8.21012 43.1408 6.28012 44.2908C4.41012 45.3908 3.7801 47.9008 4.8801 49.7608C5.9801 51.6308 8.49007 52.2607 10.3501 51.1607C12.2801 50.0207 12.7701 47.6007 11.7501 45.6907C11.1801 44.6207 9.5601 45.5706 10.1301 46.6406Z" fill="#0E426B"/>
<path d="M10.1301 46.6406C11.4001 49.0306 7.92009 51.1608 6.50009 48.8108C5.09009 46.4708 8.6301 44.3706 10.1301 46.6406ZM10.1301 46.6406C10.7901 47.6506 12.4201 46.7007 11.7501 45.6907M10.1301 46.6406C9.5601 45.5706 11.1801 44.6207 11.7501 45.6907M11.7501 45.6907C10.5501 43.8807 8.21012 43.1408 6.28012 44.2908C4.41012 45.3908 3.7801 47.9008 4.8801 49.7608C5.9801 51.6308 8.49007 52.2607 10.3501 51.1607C12.2801 50.0207 12.7701 47.6007 11.7501 45.6907Z" stroke="#00416B" stroke-width="0.25" stroke-miterlimit="10"/>
<path d="M24.1201 19.111C20.1801 22.001 16.2501 24.891 12.3101 27.791C10.8601 28.861 9.19005 29.841 7.86005 31.061C7.29005 31.591 7.37006 32.071 7.37006 32.791V44.6308C7.37006 45.8408 9.25006 45.8408 9.25006 44.6308V31.8908C9.09006 32.1608 8.94009 32.4309 8.78009 32.7009C14.2101 28.7109 19.6301 24.7309 25.0601 20.7409C26.0301 20.0309 25.09 18.401 24.11 19.121L24.1201 19.111Z" fill="#0E426B" stroke="#00416B" stroke-width="0.25" stroke-miterlimit="10"/>
</svg>
