<svg width="73" height="73" viewBox="0 0 73 73" fill="none" xmlns="http://www.w3.org/2000/svg">
<path d="M1.66016 51.1497C1.66016 46.8397 4.61011 40.0498 17.1101 40.0498C20.4801 40.0498 24.3401 41.3599 27.2701 41.3599C27.3001 41.3599 32.1601 41.3599 36.2501 41.3599C38.6401 41.3599 40.5701 43.2997 40.5701 45.6897C40.5701 47.8297 39.0101 49.6497 36.8901 49.9697L21.4401 52.4197" stroke="#0E426B" stroke-width="3" stroke-miterlimit="10"/>
<path d="M1.97998 70.8398H16.4399L33.1801 66.4997L51.8 58.2597C58.78 54.1997 62.69 52.7298 66.79 46.6198L70.29 41.4196C71.16 40.1196 70.82 38.3697 69.52 37.4997C68.48 36.7997 67.12 36.8696 66.15 37.6596L56.61 45.3996C53.45 46.9596 47.54 49.4697 47.54 49.4697L37.59 49.8398" stroke="#0E426B" stroke-width="3" stroke-miterlimit="10"/>
<path d="M57.2202 45.0298L60.3202 40.4197C61.1902 39.1197 60.8503 37.3698 59.5503 36.4998C59.1903 36.2598 58.7802 36.0998 58.3702 36.0498" stroke="#0E426B" stroke-width="3" stroke-miterlimit="10"/>
<path d="M38.8601 42.2795C26.7801 31.6295 18.0801 25.5696 18.0801 16.1096C18.0801 8.47962 23.4901 2.05957 31.3301 2.05957C39.7501 2.05957 44.5801 7.50952 44.5801 7.50952" stroke="#0E426B" stroke-width="3" stroke-miterlimit="10"/>
<path d="M44.5901 7.49976C44.5901 7.49976 49.4201 2.0498 57.8401 2.0498C65.6801 2.0498 71.0901 8.46985 71.0901 16.0999C71.0901 25.5599 62.3902 31.6198 50.3102 42.2698" stroke="#0E426B" stroke-width="3" stroke-miterlimit="10"/>
</svg>
