<svg width="67" height="70" viewBox="0 0 67 70" fill="none" xmlns="http://www.w3.org/2000/svg">
<path d="M41.97 34.6104C41.97 39.3704 38.11 43.2302 33.35 43.2302C28.59 43.2302 24.73 39.3704 24.73 34.6104V31.7302C24.73 26.9702 28.59 23.1104 33.35 23.1104C38.11 23.1104 41.97 26.9702 41.97 31.7302V34.6104Z" stroke="#0E426B" stroke-width="3" stroke-miterlimit="10"/>
<path d="M54.91 69.11V57.7499C54.91 54.3199 52.4901 51.3699 49.1301 50.6999L47.5901 50.3898C38.1001 48.4898 28.47 48.5198 18.98 50.4098L17.5601 50.6899C14.2001 51.3599 11.79 54.3099 11.79 57.7399V69.1" stroke="#0E426B" stroke-width="3" stroke-miterlimit="10"/>
<path d="M18.97 61.9199V69.1101" stroke="#0E426B" stroke-width="3" stroke-miterlimit="10"/>
<path d="M47.72 61.9199V69.1101" stroke="#0E426B" stroke-width="3" stroke-miterlimit="10"/>
<path d="M22.3502 6.61011L20.7002 2.62988" stroke="#0E426B" stroke-width="3" stroke-miterlimit="10"/>
<path d="M27.2999 18.5706L23.4399 9.27051" stroke="#0E426B" stroke-width="3" stroke-miterlimit="10"/>
<path d="M22.17 21.9907L15.0601 14.8906" stroke="#0E426B" stroke-width="3" stroke-miterlimit="10"/>
<path d="M13.02 12.8508L9.97998 9.80078" stroke="#0E426B" stroke-width="3" stroke-miterlimit="10"/>
<path d="M9.43994 23.2705L18.7399 27.1206" stroke="#0E426B" stroke-width="3" stroke-miterlimit="10"/>
<path d="M2.80005 20.5205L6.78009 22.1804" stroke="#0E426B" stroke-width="3" stroke-miterlimit="10"/>
<path d="M57.2502 43.0806L47.9502 39.2305" stroke="#0E426B" stroke-width="3" stroke-miterlimit="10"/>
<path d="M63.9002 45.8201L59.9102 44.1699" stroke="#0E426B" stroke-width="3" stroke-miterlimit="10"/>
<path d="M4.60004 33.1699H0.290039" stroke="#0E426B" stroke-width="3" stroke-miterlimit="10"/>
<path d="M17.54 33.1699H7.46997" stroke="#0E426B" stroke-width="3" stroke-miterlimit="10"/>
<path d="M59.2202 33.1699H49.1602" stroke="#0E426B" stroke-width="3" stroke-miterlimit="10"/>
<path d="M66.4102 33.1699H62.1001" stroke="#0E426B" stroke-width="3" stroke-miterlimit="10"/>
<path d="M6.78009 44.1699L2.80005 45.8201" stroke="#0E426B" stroke-width="3" stroke-miterlimit="10"/>
<path d="M18.7399 39.2305L9.43994 43.0806" stroke="#0E426B" stroke-width="3" stroke-miterlimit="10"/>
<path d="M57.2502 23.2705L47.9502 27.1206" stroke="#0E426B" stroke-width="3" stroke-miterlimit="10"/>
<path d="M63.9002 20.5205L59.9102 22.1804" stroke="#0E426B" stroke-width="3" stroke-miterlimit="10"/>
<path d="M51.63 14.8906L44.53 21.9907" stroke="#0E426B" stroke-width="3" stroke-miterlimit="10"/>
<path d="M56.7202 9.80078L53.6802 12.8508" stroke="#0E426B" stroke-width="3" stroke-miterlimit="10"/>
<path d="M43.2501 9.27051L39.4001 18.5706" stroke="#0E426B" stroke-width="3" stroke-miterlimit="10"/>
<path d="M46.0001 2.62988L44.3501 6.61011" stroke="#0E426B" stroke-width="3" stroke-miterlimit="10"/>
<path d="M33.3501 17.3608V7.30078" stroke="#0E426B" stroke-width="3" stroke-miterlimit="10"/>
<path d="M33.3501 4.42017V0.110352" stroke="#0E426B" stroke-width="3" stroke-miterlimit="10"/>
</svg>
