<svg width="80" height="75" viewBox="0 0 80 75" fill="none" xmlns="http://www.w3.org/2000/svg">
<path d="M37.0402 73.1099H2.03019C1.89019 73.1099 1.78021 72.9899 1.80021 72.8499L5.9401 28.4297H48.3601L48.6202 31.2197" stroke="#00416B" stroke-width="3" stroke-miterlimit="10"/>
<path d="M35.6002 34.9004V43.3506C35.6002 48.0206 31.8203 51.8005 27.1503 51.8005C22.4803 51.8005 18.7002 48.0206 18.7002 43.3506V34.9004" stroke="#00416B" stroke-width="3" stroke-miterlimit="10"/>
<path d="M8.77014 28.4297L4.34009 19.2397L18.2701 12.5098L24.6201 25.6396" stroke="#00416B" stroke-width="3" stroke-miterlimit="10"/>
<path d="M22.5901 14.5901L27.3601 2.75L37.2201 6.71997L28.4701 28.4299" stroke="#00416B" stroke-width="3" stroke-miterlimit="10"/>
<path d="M37.04 14.8896H45.98V28.4297" stroke="#00416B" stroke-width="3" stroke-miterlimit="10"/>
<path d="M66.92 36.3604H73.73L77.87 72.6501C77.9 72.9001 77.6999 73.1104 77.4599 73.1104H43.42C43.17 73.1104 42.98 72.9001 43 72.6501L46.8399 36.3604H53.92" stroke="#00416B" stroke-width="3" stroke-miterlimit="10"/>
<path d="M57.23 36.3604H63.54" stroke="#00416B" stroke-width="3" stroke-miterlimit="10"/>
<path d="M53.9202 39.1099V29.8398C53.9202 26.2498 56.8302 23.3398 60.4202 23.3398C64.0102 23.3398 66.9202 26.2498 66.9202 29.8398V39.1099" stroke="#00416B" stroke-width="3" stroke-miterlimit="10"/>
</svg>
