<svg width="80" height="79" viewBox="0 0 80 79" fill="none" xmlns="http://www.w3.org/2000/svg">
<path d="M48.3198 14.6211C38.7898 11.7111 14.8599 4.54102 14.8599 4.54102L9.59985 9.80103L36.3298 29.6609" stroke="#00416B" stroke-width="3" stroke-miterlimit="10"/>
<path d="M15.2899 54.5105L9.43982 52.3506L3.60986 58.1804L10.4398 61.0605" stroke="#00416B" stroke-width="3" stroke-miterlimit="10"/>
<path d="M38.5796 9.23081L41.0297 6.78086C41.4797 6.33086 42.2197 6.33086 42.6797 6.78086L46.2096 10.3109C46.6696 10.7709 46.6696 11.5108 46.2096 11.9608" stroke="#00416B" stroke-width="3" stroke-miterlimit="10"/>
<path d="M23.7798 4.75059L26.4098 2.1207C26.8598 1.6707 27.5998 1.6707 28.0598 2.1207L31.5897 5.65049C32.0497 6.11049 32.0497 6.85063 31.5897 7.30063" stroke="#00416B" stroke-width="3" stroke-miterlimit="10"/>
<path d="M68.48 24.6605C65.93 28.1805 62.89 31.3206 59.53 34.0706L20.72 64.8507C19.11 66.1307 16.8 65.9906 15.34 64.5406C13.89 63.0906 13.75 60.7705 15.03 59.1605L45.8101 20.3507C48.5601 16.9907 51.7 13.9505 55.22 11.4005C58.98 8.67045 63.8 7.64057 67.43 7.27057C70.4 6.97057 72.9 9.47049 72.6 12.4405C72.23 16.0705 71.2 20.8905 68.47 24.6505L68.48 24.6605Z" stroke="#00416B" stroke-width="3" stroke-miterlimit="10"/>
<path d="M65.2598 31.5703C68.1698 41.1003 75.3397 65.0303 75.3397 65.0303L70.0797 70.2903L50.2197 43.5503" stroke="#00416B" stroke-width="3" stroke-miterlimit="10"/>
<path d="M25.3799 64.6006L27.5399 70.4404L21.7098 76.2805L18.8298 69.4404" stroke="#00416B" stroke-width="3" stroke-miterlimit="10"/>
<path d="M70.6599 41.3111L73.1099 38.8611C73.5599 38.4111 73.5599 37.671 73.1099 37.211L69.5798 33.6809C69.1198 33.2209 68.3799 33.2209 67.9299 33.6809" stroke="#00416B" stroke-width="3" stroke-miterlimit="10"/>
<path d="M75.1399 56.1111L77.7699 53.481C78.2199 53.031 78.2199 52.2911 77.7699 51.8311L74.2399 48.3011C73.7799 47.8411 73.0398 47.8411 72.5898 48.3011" stroke="#00416B" stroke-width="3" stroke-miterlimit="10"/>
<path d="M62.1997 12.0808C63.7797 11.5208 65.6198 11.8706 66.8798 13.1306C68.1498 14.4006 68.4998 16.2308 67.9298 17.8108" stroke="#00416B" stroke-width="3" stroke-miterlimit="10"/>
</svg>
