<svg width="189" height="66" viewBox="0 0 189 66" fill="none" xmlns="http://www.w3.org/2000/svg">
<path d="M29.0799 43.1197C25.2599 39.1897 21.8699 37.5797 19.0499 36.8497H19.13C24.67 36.0397 29.24 30.83 29.24 25.15C29.24 18.97 24.05 13.4297 17.87 13.4297H3.9399C4.2899 12.7297 5.87986 10.8999 7.13986 9.87994C9.60986 7.91994 12.5199 6.65004 15.5599 5.98004C21.3099 4.66004 27.5 5.57981 32.37 8.98981C36.19 11.6298 39.01 15.82 39.74 20.44C40.12 22.67 40.04 25.5497 40.12 27.8297C40.15 30.2497 40.1699 32.9397 40.1699 35.3297C40.1699 38.6597 40.36 41.9696 40.25 45.3096C40.2 46.3896 40.1399 47.4598 39.9299 48.5098L40.0899 48.5899C40.4099 47.5399 40.5699 46.4697 40.7099 45.3897C41.0599 42.0597 41.1099 38.6897 41.1899 35.3297C41.1899 32.0997 41.4899 21.7501 41.3499 20.2501C40.9199 13.0401 36.89 6.12979 30.38 2.71979C27.1 0.949789 23.2799 0.219593 19.5699 0.519593C11.9599 1.16959 6.57994 6.75996 3.59994 13.4L3.48995 13.6197H10.2899C16.4999 13.9697 24.6499 15.7999 24.6499 25.1299C24.6499 34.4599 16.3999 36.4001 10.2099 36.7501H6.03988V36.9698H10.26C11.52 37.0198 17.1399 37.6996 24.0499 45.3096C29.3699 51.1996 36.71 54.1598 44.38 51.1998C36.66 53.3498 34.5899 48.8099 29.0799 43.1299V43.1197ZM25.3399 60.3297C23.9099 60.5196 22.4899 60.5699 21.0599 60.5499C14.5299 60.4999 7.96994 57.0799 4.59994 51.3799C3.19994 49.0399 2.41994 46.3797 2.22994 43.6597C2.17994 42.4497 2.11994 41.2101 2.09994 40.0001C2.01994 37.1501 2.06986 33.1398 2.01986 30.2398C2.01986 27.4198 1.85986 23.2798 1.88986 20.5098C1.93986 19.4098 1.99992 18.2798 2.20992 17.1998H2.07992C1.75992 18.2798 1.51997 19.3498 1.37997 20.4498C0.949968 23.2498 1.02994 27.3898 0.979944 30.2398C0.979944 33.1198 0.739973 43.2498 0.759973 44.9498C0.919973 51.0298 3.68989 57.1001 8.41989 61.0001C13.2899 65.0601 20.3 66.6699 26.38 64.6299C30.92 62.9899 34.4999 59.4099 36.8099 55.2999L36.6499 55.2198C33.7699 58.3898 29.4199 59.8396 25.3299 60.3297" fill="#240852"/>
<path d="M67.97 46.9692C68.9 46.0392 69.5799 45.8594 70.3899 45.8594C70.7699 45.8594 71.1099 45.9293 71.4199 46.0293C71.7299 46.1493 72 46.3391 72.23 46.5991C72.45 46.8591 72.64 47.1791 72.76 47.5591C72.88 47.9491 72.9499 48.4192 72.9499 48.9492V51.3291H66.22C66.27 51.0591 66.3899 50.4893 66.4399 50.2993C66.4599 50.2493 66.47 50.1794 66.49 50.0894C66.58 49.7794 66.7 49.2992 66.85 48.8892C67.14 48.0692 67.54 47.4192 67.97 46.9692ZM74.4199 46.9692C74.2499 46.4392 74.0099 45.9591 73.6999 45.5791C73.3899 45.1891 73.0099 44.8894 72.5699 44.6694C72.1299 44.4494 71.6099 44.3394 71.0399 44.3394C70.5899 44.3394 70.1299 44.4291 69.6699 44.5991C69.2099 44.7691 68.76 45.0291 68.36 45.3691C67.95 45.7091 67.57 46.1595 67.23 46.6895C66.89 47.2195 66.6099 47.8594 66.3899 48.5894L66.2899 48.9492V45.0391H64.6599V50.3594C64.6599 50.8894 64.61 51.3693 64.49 51.8193C64.37 52.2693 64.1799 52.6593 63.9199 52.9893C63.6599 53.3193 63.3199 53.5693 62.9099 53.7593C62.4999 53.9493 61.98 54.0293 61.38 54.0293C60.9 54.0293 60.44 53.9593 60.01 53.8193C59.7 53.7193 58.72 53.4092 58.09 51.9692C57.54 50.7392 57.6599 49.6495 57.6999 49.1895C57.6999 49.1595 57.7 49.1194 57.72 49.0894C57.75 48.7594 57.9299 47.7993 58.1799 47.0293L58.21 46.9092L57.9199 46.7891L57.85 46.8892C57.82 46.9392 56.99 48.2293 56.72 49.2393C56.05 51.8593 56.91 53.3691 57.49 54.0391C58.88 55.6291 60.6 55.6294 61.34 55.6294C61.89 55.6294 62.4399 55.5392 62.9399 55.3892C63.4399 55.2192 63.9199 54.9995 64.3299 54.6895C64.7399 54.3795 65.0999 53.9991 65.4099 53.5791C65.6999 53.1691 65.9299 52.6393 66.0799 52.0693H74.6999V48.7593C74.6999 48.0893 74.6099 47.5095 74.4399 46.9595L74.4199 46.9692ZM133.72 46.9692C134.65 46.0392 135.33 45.8594 136.14 45.8594C136.52 45.8594 136.86 45.9293 137.17 46.0293C137.48 46.1493 137.75 46.3391 137.98 46.5991C138.2 46.8591 138.39 47.1791 138.51 47.5591C138.63 47.9491 138.7 48.4192 138.7 48.9492V51.3291H131.93C132 51.0591 132.12 50.4893 132.17 50.2993C132.19 50.2493 132.2 50.1794 132.22 50.0894C132.31 49.7794 132.41 49.2992 132.56 48.8892C132.89 48.0692 133.28 47.4192 133.71 46.9692M140.17 46.9692C140 46.4392 139.76 45.9591 139.45 45.5791C139.14 45.1891 138.76 44.8894 138.32 44.6694C137.88 44.4494 137.36 44.3394 136.79 44.3394C136.34 44.3394 135.88 44.4291 135.42 44.5991C134.96 44.7691 134.51 45.0291 134.11 45.3691C133.7 45.7091 133.32 46.1595 132.98 46.6895C132.64 47.2195 132.36 47.8594 132.14 48.5894L132.04 48.9492V39.5293H130.39V51.3291H127.71C127.25 51.2791 126.95 50.9993 126.78 50.5093C126.71 50.2693 126.66 49.9995 126.66 49.6895V45.0391H124.98V50.2891C124.95 51.0091 124.95 51.2993 124.14 51.3193H121.87C120.81 51.3193 120.69 50.0691 120.67 49.5391V45.0493H118.97V51.7393C118.97 53.0593 118.78 53.8493 118.33 54.2993C118.02 54.6293 117.54 54.7292 116.7 54.6592L116.55 54.6392V54.9492L116.64 54.9795C117.07 55.1495 117.55 55.2393 118 55.2393C118.52 55.2393 119.46 55.1193 119.96 54.2793C120.46 53.4593 120.61 52.3393 120.65 51.2793C120.94 51.7593 121.41 52.0293 121.96 52.0293H124.48C125.42 52.0293 126.15 51.6495 126.45 50.9995C126.71 51.6495 127.24 52.0493 127.89 52.0293H140.39V48.7192C140.44 48.0992 140.36 47.5192 140.18 46.9692M108.04 43.2993C108.33 43.2993 108.59 43.1993 108.78 42.9893C108.99 42.7793 109.09 42.5293 109.09 42.2393C109.09 41.9493 108.99 41.6893 108.78 41.4893C108.57 41.2793 108.33 41.1792 108.04 41.1792C107.75 41.1792 107.47 41.2793 107.28 41.4893C107.07 41.6993 106.97 41.9493 106.97 42.2393C106.97 42.5293 107.07 42.7893 107.28 42.9893C107.49 43.1993 107.74 43.2993 108.04 43.2993ZM110.64 50.3594C110.64 50.8894 110.59 51.3693 110.47 51.8193C110.35 52.2693 110.16 52.6593 109.9 52.9893C109.64 53.3193 109.3 53.5693 108.89 53.7593C108.48 53.9493 107.96 54.0293 107.36 54.0293C106.88 54.0293 106.42 53.9593 105.99 53.8193C105.68 53.7193 104.7 53.4092 104.07 51.9692C103.52 50.7392 103.64 49.6495 103.68 49.1895C103.68 49.1595 103.68 49.1194 103.7 49.0894C103.73 48.7594 103.91 47.7993 104.16 47.0293L104.19 46.9092L103.9 46.7891L103.83 46.8892C103.8 46.9392 102.97 48.2293 102.7 49.2393C102.03 51.8593 102.89 53.3691 103.47 54.0391C104.86 55.6291 106.58 55.6294 107.32 55.6294C107.87 55.6294 108.42 55.5392 108.92 55.3892C109.42 55.2192 109.9 54.9995 110.31 54.6895C110.72 54.3795 111.08 53.9991 111.39 53.5791C111.78 52.9991 112.27 51.9694 112.27 50.3594V45.0391H110.66V50.3594H110.64ZM93.0699 51.3193H89.98C89.62 51.3193 88.8099 51.1491 88.7799 49.5391V45.0493H87.0799V51.7393C87.0799 53.0593 86.8899 53.8493 86.4399 54.2993C86.1299 54.6293 85.6499 54.7292 84.8099 54.6592L84.6599 54.6392V54.9492L84.75 54.9795C85.18 55.1495 85.66 55.2393 86.11 55.2393C86.63 55.2393 87.5699 55.1193 88.0699 54.2793C88.5699 53.4593 88.72 52.3393 88.76 51.2793C89.05 51.7593 89.5199 52.0293 90.0699 52.0293H94.7799V39.5093H93.0799L93.1 51.3291L93.0699 51.3193ZM124.19 53.1592C123.9 53.1592 123.64 53.2592 123.43 53.4692C123.22 53.6792 123.12 53.9192 123.12 54.2192C123.12 54.5092 123.22 54.7893 123.43 54.9893C123.64 55.1993 123.89 55.2993 124.19 55.2993C124.49 55.2993 124.74 55.1993 124.95 54.9893C125.16 54.7793 125.26 54.5292 125.26 54.2192C125.26 53.9092 125.16 53.6692 124.95 53.4692C124.74 53.2592 124.49 53.1592 124.19 53.1592ZM126.8 53.1592C126.51 53.1592 126.25 53.2592 126.04 53.4692C125.83 53.6792 125.71 53.9292 125.71 54.2192C125.71 54.5092 125.81 54.7893 126.04 54.9893C126.25 55.1993 126.5 55.2993 126.8 55.2993C127.1 55.2993 127.35 55.1993 127.56 54.9893C127.77 54.7793 127.87 54.5292 127.87 54.2192C127.87 53.9092 127.77 53.6692 127.56 53.4692C127.34 53.2592 127.1 53.1592 126.8 53.1592ZM114.26 39.5391H115.94V52.0591H114.26V39.5391ZM96.75 39.5391H98.4299V52.0591H96.75V39.5391ZM84.0699 45.0391H82.37V51.3193H78.35V39.5391H76.6699V52.0591H84.0699V45.0493V45.0391ZM83.1999 53.1592C82.9099 53.1592 82.6499 53.2592 82.4399 53.4692C82.2299 53.6792 82.11 53.9192 82.11 54.2192C82.11 54.5092 82.2099 54.7893 82.4399 54.9893C82.6499 55.1993 82.8999 55.2993 83.1999 55.2993C83.4999 55.2993 83.75 55.1993 83.96 54.9893C84.17 54.7793 84.2699 54.5292 84.2699 54.2192C84.2699 53.9092 84.17 53.6692 83.96 53.4692C83.75 53.2592 83.4999 53.1592 83.1999 53.1592ZM80.59 53.1592C80.3 53.1592 80.0399 53.2592 79.8299 53.4692C79.6199 53.6792 79.5199 53.9192 79.5199 54.2192C79.5199 54.5092 79.6199 54.7893 79.8299 54.9893C80.0399 55.1993 80.29 55.2993 80.59 55.2993C80.89 55.2993 81.14 55.1993 81.35 54.9893C81.56 54.7793 81.6599 54.5292 81.6599 54.2192C81.6599 53.9092 81.56 53.6692 81.35 53.4692C81.14 53.2592 80.89 53.1592 80.59 53.1592ZM70.97 43.2993C71.26 43.2993 71.52 43.1993 71.71 42.9893C71.92 42.7793 72.0199 42.5293 72.0199 42.2393C72.0199 41.9493 71.92 41.6893 71.71 41.4893C71.5 41.2793 71.26 41.1792 70.97 41.1792C70.68 41.1792 70.4 41.2793 70.21 41.4893C70 41.6993 69.8999 41.9493 69.8999 42.2393C69.8999 42.5293 70 42.7893 70.21 42.9893C70.4 43.1993 70.66 43.2993 70.97 43.2993ZM100.3 22.3394H94.76L97.5499 15.9795L100.3 22.3394ZM97.74 13.0693L90.09 30.6792H91.1799L94.34 23.3691H100.74L103.9 30.6792H106.57L98.9199 13.0693H97.71H97.74ZM186.87 28.5093L184.72 24.8394C184.27 24.0394 183.63 23.4791 182.61 23.0591C185.36 22.4491 187.17 20.5591 187.17 18.0991C187.17 15.1791 184.42 13.0293 180.77 13.0293H173.88V30.6392H176.4V13.8691H180.36C182.88 13.8691 184.54 15.5394 184.54 18.1094C184.54 20.5294 183.11 22.1995 180.62 22.4995C179.64 22.6095 178.66 22.6094 177.98 22.6094H177.49V22.8394H177.94C179.11 22.8394 179.82 22.8393 180.35 23.0293C180.92 23.2193 181.4 23.8291 181.86 24.6191C182.16 25.1091 184.31 29.0093 184.35 29.0493C184.69 29.6593 185.14 30.1493 185.67 30.5293L185.71 30.5693H188.84L188.39 30.2295C187.86 29.9595 187.26 29.2493 186.88 28.5293M160.12 22.3394H154.58L157.37 15.9795L160.12 22.3394ZM157.56 13.0693L149.88 30.6792H150.97L154.13 23.3691H160.53L163.69 30.6792H166.36L158.71 13.0693H157.54H157.56ZM70.12 28.5093L67.97 24.8394C67.52 24.0394 66.88 23.4791 65.86 23.0591C68.61 22.4491 70.4199 20.5591 70.4199 18.0991C70.4199 15.1791 67.6699 13.0293 64.0199 13.0293H57.13V30.6392H59.6499V13.8691H63.61C66.13 13.8691 67.7899 15.5394 67.7899 18.1094C67.7899 20.5294 66.36 22.1995 63.87 22.4995C62.89 22.6095 61.91 22.6094 61.23 22.6094H60.74V22.8394H61.1899C62.3599 22.8394 63.07 22.8393 63.6 23.0293C64.17 23.2193 64.65 23.8291 65.11 24.6191C65.41 25.1091 67.56 29.0093 67.6 29.0493C67.94 29.6593 68.3899 30.1493 68.9199 30.5293L68.96 30.5693H72.09L71.6399 30.2295C71.1499 29.9595 70.55 29.2493 70.13 28.5293M167.92 13.0293H170.44V30.6392H167.92V13.0293ZM138.65 21.2095H128.93V13.0293H126.41V30.6392H128.93V22.2295H138.65V30.6392H141.17V13.0293H138.65V21.2095ZM110.66 13.8994H114.35C116.42 13.8994 118.19 14.6591 119.44 16.0591C120.68 17.4991 121.36 19.4691 121.36 21.8491C121.36 24.2291 120.68 26.1992 119.44 27.6392C118.2 29.0392 116.43 29.7993 114.35 29.7993H110.66V13.8994ZM114.65 13.0293H108.1V30.6392H114.65C119.96 30.6392 123.99 26.8493 123.99 21.8193C123.95 16.8193 119.96 13.0391 114.65 13.0391V13.0293ZM91.6699 13.0293L85.7899 22.0391L79.88 13.0293H77.0199L83.6499 23.1392V30.6694H86.1699V23.1392L92.7999 13.0293H91.6699ZM73.0199 13.0293H75.5399V30.6392H73.0199V13.0293Z" fill="#240852"/>
</svg>
