<svg width="197" height="84" viewBox="0 0 197 84" fill="none" xmlns="http://www.w3.org/2000/svg">
<path d="M6.88002 39.1396C5.91002 39.1596 4.95002 39.0496 4.01002 38.8096C3.29002 38.6296 2.62001 38.2896 2.06001 37.8096C1.55001 37.3596 1.17004 36.7899 0.960035 36.1499C0.710035 35.3999 0.599998 34.6198 0.609998 33.8398C0.609998 33.2598 0.670052 32.6796 0.790052 32.1196C0.880052 31.6396 1.03005 31.17 1.23005 30.73L2.73005 30.46C2.49005 30.95 2.32003 31.47 2.20003 32C2.07003 32.55 2.00001 33.1099 2.00001 33.6699C1.99001 34.3099 2.07 34.9496 2.24 35.5596C2.38 36.0796 2.67001 36.5497 3.06001 36.9297C3.50001 37.3297 4.04001 37.61 4.62001 37.75C5.42001 37.95 6.25003 38.0395 7.08003 38.0195H10.43V30.5298H11.82V39.1396H6.88002ZM5.42 28.73C4.93 28.73 4.54005 28.3396 4.54005 27.8496C4.54005 27.3596 4.93 26.9697 5.42 26.9697C5.65 26.9697 5.88005 27.06 6.04005 27.23C6.38005 27.58 6.38005 28.13 6.04005 28.48C5.88005 28.65 5.65 28.7397 5.42 28.7397M8.01002 28.7397C7.77002 28.7397 7.55002 28.65 7.38002 28.48C7.21002 28.32 7.12001 28.0896 7.12001 27.8496C7.12001 27.6096 7.21002 27.3897 7.38002 27.2197C7.54002 27.0497 7.77002 26.96 8.01002 26.96C8.24002 26.96 8.46001 27.0497 8.62001 27.2197C8.95001 27.5697 8.95001 28.1197 8.62001 28.4697C8.46001 28.6397 8.24002 28.73 8.01002 28.73" fill="#7D8080"/>
<path d="M16.7301 26.2197H15.3401V39.1396H16.7301V26.2197Z" fill="#7D8080"/>
<path d="M18.2499 43.8599C17.8899 43.8599 17.52 43.8295 17.16 43.7695C16.83 43.7195 16.4999 43.6496 16.1799 43.5596L16.3799 42.3696C16.6899 42.4796 17.01 42.5699 17.33 42.6299C17.67 42.6999 18.0099 42.73 18.3599 42.73C18.7299 42.73 19.1 42.6798 19.45 42.5698C19.77 42.4598 20.06 42.2698 20.27 42.0098C20.52 41.7098 20.7 41.3497 20.79 40.9697C20.92 40.4397 20.99 39.8996 20.97 39.3496V30.5195H22.3599V39.2197C22.3599 39.8497 22.29 40.4798 22.15 41.0898C22.03 41.6198 21.79 42.1196 21.46 42.5596C21.13 42.9896 20.6899 43.3195 20.1899 43.5195C19.5699 43.7595 18.9 43.8799 18.23 43.8599" fill="#7D8080"/>
<path d="M25.8899 26.2197H27.2799V38.0195H29.3599V39.1396H25.8799V26.2197H25.8899Z" fill="#7D8080"/>
<path d="M29.1001 38.019H31.8301V30.5293H33.2201V38.019H36.1901V39.1294H29.1001V38.019ZM31.5201 41.8594C31.5201 42.0994 31.4301 42.3193 31.2601 42.4893C31.1001 42.6593 30.8701 42.7495 30.6301 42.7495C30.4001 42.7495 30.1801 42.6695 30.0201 42.4995C29.8601 42.3295 29.7701 42.0994 29.7701 41.8594C29.7701 41.6294 29.8501 41.3995 30.0201 41.2295C30.1801 41.0595 30.4001 40.9692 30.6301 40.9692C31.1101 40.9692 31.5101 41.3594 31.5101 41.8394C31.5101 41.8394 31.5101 41.8391 31.5101 41.8491M34.0801 41.8594C34.0801 42.0894 34.0001 42.3193 33.8301 42.4893C33.6701 42.6593 33.4501 42.7495 33.2201 42.7495C32.9901 42.7495 32.7601 42.6695 32.5901 42.4995C32.4201 42.3295 32.3201 42.0994 32.3301 41.8594C32.3301 41.6194 32.4201 41.3995 32.5901 41.2295C32.7501 41.0595 32.9801 40.9692 33.2201 40.9692C33.4501 40.9692 33.6801 41.0595 33.8301 41.2295C33.9901 41.3995 34.0801 41.6194 34.0801 41.8594Z" fill="#7D8080"/>
<path d="M46.6 39.0596C46.22 39.0196 45.84 38.9396 45.48 38.8096C45.2 38.7096 44.94 38.5496 44.73 38.3296C44.91 38.1496 44.9 37.8499 44.72 37.6699C44.54 37.4899 44.2399 37.4997 44.0599 37.6797C43.9399 37.8097 43.9 37.9897 43.96 38.1597C43.81 38.3697 43.6299 38.5497 43.4199 38.6997C43.1699 38.8697 42.89 38.9998 42.6 39.0898C42.23 39.1998 41.85 39.26 41.46 39.25C40.91 39.27 40.3799 39.1096 39.9299 38.7896C39.5399 38.4996 39.27 38.0896 39.15 37.6196C39 38.0696 38.6999 38.4497 38.3199 38.7197C37.8199 39.0197 37.24 39.1596 36.66 39.1196H35.9299V38H36.6799C37.2399 38.05 37.7799 37.8399 38.1699 37.4399C38.5599 36.8399 38.73 36.1297 38.65 35.4097V31.5996H40.0499V34.9199C40.0499 35.4199 40.06 35.8698 40.08 36.2598C40.09 36.5998 40.1499 36.9395 40.2599 37.2695C40.3499 37.5295 40.5199 37.7597 40.7499 37.9097C41.0399 38.0697 41.3599 38.1499 41.6899 38.1299C41.9699 38.1299 42.2399 38.0897 42.5099 37.9897C42.7699 37.8897 43 37.72 43.16 37.5C43.37 37.21 43.51 36.8798 43.59 36.5298C43.71 36.0098 43.7599 35.4799 43.7499 34.9399V30.8696H45.1V35.5996C45.08 36.0296 45.1399 36.4596 45.2599 36.8696C45.3399 37.1596 45.5199 37.4096 45.7499 37.5996C46.0099 37.7796 46.32 37.8997 46.64 37.9297C47.08 37.9797 47.53 38.0098 47.98 38.0098H48.6199C48.6699 37.6098 48.7099 37.1496 48.7399 36.6396C48.7699 36.1296 48.78 35.6898 48.78 35.3198C48.78 34.3698 48.72 33.4297 48.6 32.4897C48.49 31.7297 48.34 30.97 48.14 30.23L49.4999 29.96C49.6999 30.73 49.86 31.5098 49.98 32.2998C50.12 33.2598 50.1799 34.2299 50.1799 35.1899C50.1799 35.6199 50.16 36.0798 50.14 36.5698C50.12 37.0598 50.07 37.55 50.02 38H52.1799V39.1196H48.1699C47.6399 39.1196 47.12 39.0996 46.59 39.0396" fill="#7D8080"/>
<path d="M51.9099 38.0195H54.5799V26.2197H55.9699V39.1396H51.8999V38.0195H51.9099Z" fill="#7D8080"/>
<path d="M60.9999 26.2197H59.6099V39.1396H60.9999V26.2197Z" fill="#7D8080"/>
<path d="M68.57 43.8599C68.21 43.8599 67.84 43.8295 67.48 43.7695C67.15 43.7195 66.82 43.6496 66.5 43.5596L66.7 42.3696C67.01 42.4796 67.33 42.5699 67.65 42.6299C67.99 42.6999 68.33 42.73 68.68 42.73C69.05 42.73 69.42 42.6798 69.77 42.5698C70.09 42.4598 70.38 42.2698 70.59 42.0098C70.84 41.7098 71.02 41.3497 71.11 40.9697C71.24 40.4397 71.31 39.8996 71.29 39.3496V30.5195H72.68V38.0098H74.79V39.1299H72.69V39.2197C72.69 39.8497 72.62 40.4798 72.48 41.0898C72.36 41.6198 72.12 42.1196 71.79 42.5596C71.46 42.9896 71.02 43.3195 70.52 43.5195C69.9 43.7595 69.23 43.8799 68.56 43.8599" fill="#7D8080"/>
<path d="M74.54 38.019H77.27V30.5293H78.66V38.019H81.63V39.1294H74.55V38.019H74.54ZM76.96 41.8594C76.96 42.0994 76.87 42.3193 76.7 42.4893C76.54 42.6593 76.31 42.7495 76.07 42.7495C75.84 42.7495 75.62 42.6695 75.46 42.4995C75.3 42.3295 75.21 42.0994 75.21 41.8594C75.21 41.6294 75.29 41.3995 75.46 41.2295C75.62 41.0595 75.84 40.9692 76.07 40.9692C76.55 40.9692 76.95 41.3594 76.95 41.8394C76.95 41.8394 76.95 41.8391 76.95 41.8491M79.52 41.8594C79.52 42.0894 79.44 42.3193 79.27 42.4893C79.11 42.6593 78.89 42.7495 78.66 42.7495C78.43 42.7495 78.2 42.6695 78.03 42.4995C77.86 42.3295 77.76 42.0994 77.77 41.8594C77.77 41.6194 77.86 41.3995 78.03 41.2295C78.19 41.0595 78.42 40.9692 78.66 40.9692C78.89 40.9692 79.12 41.0595 79.27 41.2295C79.43 41.3995 79.52 41.6194 79.52 41.8594Z" fill="#7D8080"/>
<path d="M81.3799 38.0192H89.1299C89.1799 37.6592 89.2199 37.3094 89.2399 36.9694C89.2599 36.6294 89.2799 36.2794 89.2799 35.9494C89.2799 35.2994 89.2199 34.6595 89.0699 34.0295C88.9499 33.5195 88.7099 33.0494 88.3699 32.6594C88.0199 32.2794 87.5699 31.9995 87.0799 31.8395C86.4299 31.6495 85.7599 31.5593 85.0799 31.5793C84.7199 31.5793 84.3899 31.5796 84.0799 31.6096C83.7699 31.6396 83.4299 31.6597 83.0799 31.7097V30.5993C83.3599 30.5593 83.6799 30.5297 84.0499 30.4997C84.4199 30.4697 84.7999 30.4494 85.1999 30.4494C86.0599 30.4294 86.9199 30.5495 87.7499 30.7995C88.3899 30.9995 88.9699 31.3493 89.4399 31.8293C89.8799 32.3093 90.1999 32.8797 90.3699 33.4997C90.5799 34.2497 90.6699 35.0195 90.6599 35.7995C90.6599 36.2395 90.6399 36.7395 90.5899 37.2995C90.5399 37.8595 90.4599 38.4696 90.3499 39.1296H81.3599V38.0192H81.3799ZM85.6999 42.7595C85.4699 42.7595 85.2399 42.6695 85.0699 42.5095C84.7199 42.1695 84.7199 41.6095 85.0699 41.2595C85.2399 41.0895 85.4599 40.9997 85.6999 40.9997C85.9299 40.9997 86.1599 41.0897 86.3299 41.2497C86.6799 41.5797 86.6899 42.1297 86.3499 42.4797L86.3299 42.4997C86.1599 42.6697 85.9399 42.7595 85.6999 42.7595Z" fill="#7D8080"/>
<path d="M92.1199 24.1301C92.3999 24.1301 92.6599 24.1299 92.8899 24.1599C93.1199 24.1899 93.3199 24.2002 93.4899 24.2302C93.2999 24.1502 93.1499 24.0099 93.0599 23.8299C92.9699 23.6699 92.9299 23.4801 92.9199 23.3001C92.9199 23.0801 92.9599 22.8599 93.0399 22.6599C93.1299 22.4499 93.2599 22.2499 93.4299 22.0999C93.6299 21.9199 93.8599 21.7902 94.1199 21.7102C94.4499 21.6002 94.7999 21.5498 95.1499 21.5598C95.3299 21.5598 95.5099 21.5599 95.6599 21.5799C95.8099 21.5799 95.9499 21.6101 96.0999 21.6301L95.9499 22.5301C95.8199 22.5001 95.6899 22.4802 95.5599 22.4802C95.3999 22.4702 95.2299 22.4602 95.0599 22.4602C94.7799 22.4402 94.4899 22.52 94.2599 22.68C94.0899 22.83 93.9899 23.0398 93.9999 23.2698C93.9999 23.5198 94.1299 23.7499 94.3399 23.8899C94.6899 24.0899 95.0999 24.1902 95.4999 24.1502H96.4499V25.0501H92.1299V24.1502H92.1099L92.1199 24.1301ZM93.7799 26.3098H95.1699V38.0198H97.2499V39.1301H93.7699V26.3001L93.7799 26.3098Z" fill="#7D8080"/>
<path d="M96.99 38.019H99.72V30.5293H101.11V38.019H103.09V39.1392H96.99V38.019ZM98.84 28.7295C98.61 28.7295 98.38 28.6392 98.23 28.4692C97.9 28.1192 97.9 27.5692 98.23 27.2192C98.39 27.0492 98.61 26.9595 98.84 26.9595C99.07 26.9595 99.3 27.0492 99.46 27.2192C99.8 27.5592 99.81 28.1192 99.46 28.4692C99.3 28.6392 99.07 28.7395 98.84 28.7295ZM101.42 28.7295C101.18 28.7295 100.96 28.6392 100.79 28.4692C100.62 28.3092 100.53 28.0794 100.53 27.8394C100.53 27.5994 100.62 27.3795 100.79 27.2095C100.95 27.0395 101.18 26.9492 101.42 26.9492C101.65 26.9492 101.87 27.0395 102.03 27.2095C102.36 27.5595 102.36 28.1095 102.03 28.4595C101.87 28.6295 101.65 28.7192 101.42 28.7192" fill="#7D8080"/>
<path d="M102.82 38.0195H105.5V26.2197H106.89V39.1396H102.82V38.0195Z" fill="#7D8080"/>
<path d="M33.21 62.5201L28.85 56.8003H28.63V62.5201H27.24V50.1504C27.63 50.1304 28.05 50.1101 28.5 50.1001C28.95 50.0901 29.5 50.1001 30.16 50.1001C30.71 50.1001 31.25 50.1503 31.78 50.2603C32.24 50.3603 32.68 50.5401 33.07 50.7901C33.43 51.0301 33.73 51.3605 33.93 51.7505C34.15 52.2005 34.26 52.7005 34.24 53.2105C34.25 53.7205 34.14 54.2202 33.93 54.6802C33.73 55.1002 33.44 55.4703 33.07 55.7603C32.7 56.0603 32.28 56.2905 31.83 56.4405C31.36 56.6005 30.86 56.6905 30.36 56.7105L30.93 57.3501C31.13 57.5701 31.3 57.7803 31.46 57.9903L35.02 62.5201H33.2H33.21ZM32.77 53.4102C32.84 52.7502 32.55 52.1002 32.02 51.7002C31.35 51.3302 30.59 51.1605 29.83 51.2105C29.4 51.2105 29 51.2303 28.63 51.2603V55.7105C28.73 55.7205 28.87 55.7303 29.05 55.7403C29.23 55.7503 29.47 55.7403 29.75 55.7403C30.55 55.7903 31.33 55.5604 31.98 55.0904C32.5 54.6804 32.79 54.0504 32.77 53.4004" fill="#7D8080"/>
<path d="M43.51 56.9302V57.3302C43.51 57.5002 43.5001 57.6704 43.4701 57.8404H37.39C37.27 58.8304 37.5201 59.8302 38.1001 60.6402C38.7001 61.2602 39.55 61.5901 40.42 61.5201C40.87 61.5201 41.31 61.4802 41.75 61.3902C42.18 61.3002 42.6 61.1706 43.01 61.0006L43.25 62.1202C42.78 62.3002 42.2901 62.4303 41.7901 62.5303C41.2501 62.6403 40.7 62.6905 40.15 62.6905C39 62.7705 37.86 62.3604 37.03 61.5504C36.24 60.5504 35.8601 59.2803 35.9701 58.0103C35.9701 57.3703 36.06 56.7302 36.24 56.1202C36.4 55.5702 36.67 55.0604 37.03 54.6104C37.75 53.7204 38.8401 53.2206 39.9801 53.2506C40.5301 53.2306 41.08 53.3301 41.59 53.5401C42.02 53.7201 42.39 53.9904 42.69 54.3404C42.97 54.6904 43.19 55.0901 43.32 55.5201C43.45 55.9801 43.52 56.4505 43.52 56.9205M42.07 56.8404C42.13 56.1704 41.93 55.5005 41.51 54.9805C41.09 54.5205 40.49 54.2801 39.87 54.3101C39.26 54.2901 38.67 54.5303 38.25 54.9703C37.78 55.4903 37.5 56.1404 37.43 56.8404H42.07Z" fill="#7D8080"/>
<path d="M51.9401 62.5195V56.6298C51.9701 56.0498 51.8501 55.4799 51.5801 54.9599C51.2701 54.5299 50.7601 54.3096 50.2401 54.3696C49.8501 54.3696 49.4701 54.4698 49.1301 54.6498C48.7801 54.8498 48.4801 55.1199 48.2501 55.4399C47.9901 55.7999 47.79 56.2096 47.67 56.6396C47.53 57.1296 47.4701 57.6396 47.4701 58.1396V62.4999H46.0801V53.3998H47.4501C47.4501 53.7098 47.4401 54.0499 47.4101 54.4399C47.3901 54.7699 47.35 55.1099 47.3 55.4399L47.3401 55.4599C47.8201 54.0899 49.1501 53.1997 50.6001 53.2597C51.0501 53.2497 51.4901 53.3197 51.9101 53.4897C52.2301 53.6297 52.5201 53.8398 52.7401 54.1098C52.9501 54.3898 53.1101 54.6995 53.1901 55.0395C53.2801 55.4095 53.3301 55.7996 53.3301 56.1796V62.5097H51.9401V62.5195Z" fill="#7D8080"/>
<path d="M60.0601 62.6099C59.7601 62.6499 59.4501 62.6597 59.1501 62.6597C58.7601 62.6697 58.3701 62.6198 58.0001 62.5098C57.7201 62.4198 57.4601 62.2495 57.2701 62.0195C57.0701 61.7795 56.9401 61.4899 56.8801 61.1899C56.8001 60.7899 56.7601 60.3797 56.7701 59.9697V54.4897H54.8V53.4097H56.7801V50.3896L58.17 50V53.4097H60.8501V54.4897H58.17V59.3999C58.17 59.7399 58.1901 60.0697 58.2301 60.4097C58.2601 60.6297 58.3301 60.8496 58.4501 61.0396C58.5501 61.1896 58.7001 61.2999 58.8701 61.3599C59.0901 61.4299 59.3101 61.4597 59.5401 61.4497C59.9501 61.4497 60.3701 61.4096 60.7701 61.3096L60.9301 62.46C60.6401 62.53 60.3501 62.5796 60.0601 62.5996" fill="#7D8080"/>
<path d="M72.0599 62.519C72.0599 62.159 72.0599 61.8292 72.0599 61.4892C72.0599 61.1892 72.0899 60.8893 72.1399 60.5893H72.1C71.99 60.8793 71.8299 61.1591 71.6399 61.4091C71.4399 61.6591 71.1999 61.8893 70.9399 62.0693C70.6599 62.2593 70.3499 62.409 70.0299 62.519C69.6799 62.629 69.3099 62.6894 68.9399 62.6894C68.2799 62.7194 67.6299 62.479 67.1399 62.039C66.6599 61.579 66.4099 60.929 66.4399 60.269C66.4499 59.309 66.9999 58.439 67.8599 58.019C69.1399 57.379 70.5599 57.0892 71.9899 57.1792V56.7192C72.0399 56.0892 71.88 55.4592 71.54 54.9292C71.12 54.4992 70.5299 54.2891 69.9399 54.3491C69.4699 54.3491 68.9999 54.419 68.5499 54.539C68.0899 54.649 67.6399 54.819 67.2099 55.019L66.9199 53.8891C67.3999 53.6891 67.9 53.5294 68.41 53.4194C68.98 53.2894 69.5599 53.2195 70.1399 53.2295C70.6599 53.2195 71.1799 53.2894 71.6699 53.4594C72.0499 53.5894 72.3899 53.8091 72.6699 54.0991C72.9299 54.3891 73.1199 54.7291 73.2199 55.0991C73.3399 55.5291 73.3899 55.9794 73.3899 56.4194V61.1792C73.3899 61.6592 73.3999 62.1092 73.4299 62.5092H72.0499L72.0599 62.519ZM71.9999 58.1792C71.3299 58.1692 70.6599 58.2193 69.9899 58.3393C69.5399 58.4093 69.1099 58.5592 68.6999 58.7592C68.4199 58.8992 68.1899 59.1091 68.0299 59.3691C67.9099 59.5791 67.8399 59.8293 67.8399 60.0693C67.8299 60.4693 67.9699 60.8491 68.2399 61.1391C68.5199 61.4391 68.9199 61.5893 69.3299 61.5693C69.7099 61.5693 70.08 61.4793 70.41 61.2993C70.7299 61.1093 71.0199 60.8693 71.2499 60.5693C71.4899 60.2693 71.6699 59.919 71.7999 59.559C71.9299 59.189 71.9899 58.7991 71.9899 58.4091V58.1894L71.9999 58.1792Z" fill="#7D8080"/>
<path d="M87.4101 62.4697C86.7901 62.5897 86.1701 62.6499 85.5401 62.6499C84.6901 62.6699 83.8501 62.5197 83.0601 62.2197C82.3901 61.9597 81.7901 61.54 81.3201 61C80.8501 60.45 80.5001 59.7998 80.2901 59.1098C80.0501 58.2998 79.9401 57.4698 79.9501 56.6298C79.9501 55.7498 80.0601 54.8697 80.3001 54.0297C80.5101 53.2597 80.8801 52.5496 81.3801 51.9296C81.8901 51.3296 82.5301 50.8495 83.2501 50.5395C84.1101 50.1795 85.0301 50.0095 85.9601 50.0395C86.4501 50.0395 86.9401 50.0796 87.4301 50.1396C87.9101 50.1996 88.3901 50.2999 88.8601 50.4399L88.6201 51.7397C88.1501 51.5797 87.6701 51.4498 87.1901 51.3598C86.7101 51.2698 86.2201 51.2197 85.7201 51.2197C85.0501 51.1997 84.3901 51.3398 83.7901 51.6298C83.2701 51.8898 82.8201 52.28 82.4701 52.75C82.1101 53.24 81.8501 53.7996 81.7101 54.3896C81.5501 55.0396 81.4701 55.7196 81.4701 56.3896C81.3901 57.7196 81.7701 59.0298 82.5501 60.1098C83.4001 61.0498 84.6401 61.5296 85.9001 61.4296C86.4001 61.4296 86.9001 61.37 87.3901 61.25C87.8601 61.14 88.3101 60.9795 88.7501 60.7695L89.0201 61.9799C88.5001 62.1999 87.9601 62.3697 87.4101 62.4697Z" fill="#7D8080"/>
<path d="M96.2101 62.519C96.2101 62.159 96.2101 61.8292 96.2101 61.4892C96.2101 61.1892 96.2401 60.8893 96.2901 60.5893H96.25C96.14 60.8793 95.9801 61.1591 95.7901 61.4091C95.5901 61.6691 95.3501 61.8893 95.0801 62.0693C94.8001 62.2593 94.49 62.409 94.17 62.519C93.82 62.629 93.4501 62.6894 93.0801 62.6894C92.4201 62.7194 91.7701 62.479 91.2801 62.039C90.8001 61.579 90.5501 60.929 90.5801 60.269C90.5901 59.309 91.14 58.439 92 58.019C93.28 57.379 94.7 57.0892 96.13 57.1792V56.7192C96.18 56.0892 96.02 55.4592 95.68 54.9292C95.26 54.4992 94.6701 54.2891 94.0801 54.3491C93.6101 54.3491 93.14 54.419 92.69 54.539C92.23 54.649 91.7801 54.819 91.3501 55.019L91.06 53.8891C91.54 53.6891 92.04 53.5294 92.55 53.4194C93.12 53.2894 93.7001 53.2195 94.2801 53.2295C94.8001 53.2195 95.32 53.2894 95.81 53.4594C96.19 53.5894 96.53 53.8091 96.8 54.0991C97.06 54.3891 97.2501 54.7291 97.3501 55.0991C97.4701 55.5291 97.5201 55.9794 97.5201 56.4194V61.1792C97.5201 61.6592 97.53 62.1092 97.56 62.5092H96.18L96.2101 62.519ZM96.1501 58.1792C95.4801 58.1692 94.8101 58.2193 94.1401 58.3393C93.6901 58.4093 93.2601 58.5592 92.8501 58.7592C92.5701 58.8992 92.34 59.1091 92.18 59.3691C92.06 59.5791 91.99 59.8293 91.99 60.0693C91.98 60.4693 92.1201 60.8491 92.3901 61.1391C92.6801 61.4391 93.0701 61.5893 93.4801 61.5693C93.8601 61.5693 94.23 61.4793 94.56 61.2993C94.88 61.1193 95.1701 60.8693 95.4001 60.5693C95.6401 60.2693 95.8201 59.919 95.9501 59.559C96.0801 59.189 96.1401 58.7991 96.1401 58.4091V58.1894L96.1501 58.1792Z" fill="#7D8080"/>
<path d="M105.24 54.6196C104.39 54.3896 103.48 54.7297 102.99 55.4697C102.43 56.5197 102.18 57.6998 102.27 58.8798V62.5297H100.88V53.4199H102.25C102.25 53.7299 102.23 54.0799 102.2 54.4999C102.17 54.9199 102.11 55.3199 102.04 55.7099L102.08 55.7299C102.17 55.3899 102.3 55.0597 102.46 54.7597C102.63 54.4497 102.85 54.1596 103.11 53.9296C103.38 53.6896 103.7 53.4996 104.04 53.3896C104.45 53.2596 104.87 53.2297 105.3 53.2797L105.24 54.6396V54.6196Z" fill="#7D8080"/>
<path d="M195.96 78.1098C197.28 82.5798 194.81 84.8295 190.48 83.1195L131.75 59.8495C127.42 58.1295 126.25 53.7495 129.16 50.0995L166.62 3.13954C169.53 -0.500461 172.98 0.169793 174.3 4.64979L195.96 78.1098Z" fill="#EBB4C1"/>
<path d="M190.89 82.2197C194.99 84.4297 197.27 82.5898 195.95 78.1098L174.29 4.6396C172.97 0.1696 169.09 -0.900282 165.66 2.25972L126.49 38.3798C123.06 41.5398 123.62 45.9299 127.72 48.1499L190.89 82.2197Z" fill="#356D9F"/>
<path d="M164.82 35.3398C164.7 35.5798 164.71 35.8699 164.84 36.1099C164.99 36.3199 165.23 36.4499 165.49 36.4399C166.01 36.4499 166.53 36.4499 167.05 36.4399H167.74C167.97 36.4399 168.19 36.4399 168.42 36.4399C168.91 36.4399 169.41 36.4497 169.9 36.4297C171.02 36.4297 172.05 35.8096 172.56 34.8096C172.94 34.0596 173.07 33.1996 172.93 32.3696C172.74 30.7296 171.32 29.5196 169.68 29.5796H169.23C168.83 29.5596 168.83 29.5596 168.68 29.5596C168.57 29.5596 168.37 29.5596 167.87 29.5796C167.67 29.5796 167.48 29.64 167.31 29.75C167.04 29.94 166.94 30.2896 167.07 30.5996C167.12 30.8796 167.36 31.0798 167.64 31.0898H167.69C167.82 31.1098 167.95 31.1199 168.08 31.1299H169.47C169.74 31.1299 170.01 31.1497 170.27 31.2197C170.81 31.3797 171.24 31.7898 171.43 32.3198C171.65 32.9298 171.57 33.6099 171.22 34.1499C170.86 34.6699 170.26 34.9697 169.63 34.9297C168.98 34.9297 168.34 34.9297 167.69 34.9297C166.95 34.9297 166.2 34.9297 165.45 34.9297C165.18 34.9097 164.94 35.0698 164.85 35.3198" fill="white"/>
<path d="M163.33 30.2505L163.31 30.2105C163.11 29.8605 162.66 29.7404 162.31 29.9404C162.09 30.0704 161.95 30.2903 161.94 30.5503V31.52C161.94 31.65 161.94 31.7904 161.95 31.9204C162 32.4204 161.95 32.9302 161.82 33.4102C161.65 34.0702 161.15 34.6003 160.49 34.8003C159.61 35.0903 158.65 35.0003 157.85 34.5503C157.8 34.5103 157.74 34.4802 157.69 34.4502C157.54 34.3802 157.37 34.3601 157.21 34.3901C156.81 34.4901 156.55 34.8801 156.61 35.2901C156.65 35.4801 156.75 35.6503 156.91 35.7603L157.06 35.8501C157.47 36.0701 157.9 36.2303 158.35 36.3203C159.39 36.6003 160.5 36.4805 161.46 36.0005C162.59 35.5505 163.35 34.4803 163.4 33.2603C163.44 32.6003 163.43 31.9203 163.43 31.2603V30.6904C163.43 30.6304 163.43 30.6101 163.43 30.5801C163.42 30.4701 163.39 30.3603 163.35 30.2603" fill="white"/>
<path d="M155.84 30.2505L155.82 30.2105C155.62 29.8605 155.17 29.7404 154.82 29.9404C154.6 30.0704 154.46 30.2903 154.45 30.5503V31.52C154.45 31.65 154.45 31.7904 154.45 31.9204C154.5 32.4204 154.45 32.9302 154.32 33.4102C154.15 34.0702 153.65 34.6003 152.99 34.8003C152.66 34.9003 152.31 34.9505 151.96 34.9605H145.53C145.18 34.9605 144.83 34.9003 144.5 34.8003C143.9 34.6103 143.42 34.1501 143.2 33.5601C143.07 33.1801 143.01 32.7701 143.05 32.3701V32.1104C143.03 31.7104 142.69 31.3902 142.29 31.4102C142.03 31.4102 141.8 31.56 141.68 31.79V31.8203C141.63 31.9303 141.6 32.0402 141.59 32.1602V32.2202V32.3003C141.59 32.5903 141.59 32.7005 141.59 32.7505V32.8003C141.59 32.8003 141.61 32.9403 141.62 33.2603C141.67 34.4803 142.43 35.5505 143.56 36.0005C144.17 36.3105 144.85 36.4705 145.54 36.4605H151.96C152.65 36.4705 153.33 36.3105 153.94 36.0005C155.07 35.5505 155.83 34.4803 155.88 33.2603C155.92 32.6003 155.91 31.9203 155.91 31.2603V30.7002C155.91 30.6402 155.91 30.6203 155.91 30.5903C155.9 30.4803 155.87 30.37 155.83 30.27" fill="white"/>
<path d="M158.06 43.4395C157.84 43.3895 157.62 43.3594 157.39 43.3594C156.62 43.3594 155.89 43.6695 155.34 44.2095C154.58 44.9295 154.25 45.9893 154.44 47.0093C154.53 48.0693 155.21 48.9791 156.2 49.3691C157.14 49.7191 158.18 49.6891 159.09 49.2891C159.46 49.1791 159.78 48.9494 159.99 48.6294C160.12 48.4194 160.11 48.1495 159.96 47.9595C159.83 47.7595 159.59 47.6795 159.36 47.7495C159.22 47.7895 159.08 47.8492 158.95 47.9292L158.89 47.9595C158.32 48.2595 157.65 48.3592 157.02 48.2192C156.42 48.0792 155.99 47.5695 155.94 46.9595C155.91 46.5595 155.94 46.1693 156 45.7793C156.09 45.0693 156.68 44.5393 157.4 44.5293C158.08 44.5793 158.63 45.1193 158.68 45.7993V45.9893H157.27C157.02 45.9893 156.82 46.1895 156.82 46.4395C156.82 46.6895 157.02 46.8892 157.27 46.8892H159.56C159.74 46.9092 159.91 46.8493 160.05 46.7393C160.14 46.6193 160.18 46.4593 160.16 46.2993C160.16 45.9693 160.1 45.6393 160.01 45.3193C159.73 44.3893 158.99 43.6692 158.05 43.4292" fill="white"/>
<path d="M142.29 42.8193H146.55C146.93 42.8193 147.24 42.5094 147.24 42.1294C147.24 41.7494 146.93 41.4395 146.55 41.4395H142.29C141.91 41.4395 141.6 41.7494 141.6 42.1294C141.6 42.5094 141.91 42.8193 142.29 42.8193Z" fill="white"/>
<path d="M145.17 48.73V44.0195C145.17 43.5995 144.83 43.2598 144.41 43.2598C143.99 43.2598 143.66 43.5995 143.66 44.0195V48.73C143.66 49.15 144 49.4897 144.42 49.4897C144.84 49.4897 145.18 49.15 145.18 48.73" fill="white"/>
<path d="M148.86 40.7598C148.44 40.7598 148.1 41.0995 148.1 41.5195V48.7397C148.1 49.1597 148.44 49.5 148.86 49.5C149.28 49.5 149.62 49.1597 149.62 48.7397V41.5195C149.62 41.0995 149.28 40.7598 148.86 40.7598Z" fill="white"/>
<path d="M168.43 40.7598C168.01 40.7598 167.67 41.0995 167.67 41.5195V48.7397C167.67 49.1597 168.01 49.5 168.43 49.5C168.85 49.5 169.19 49.1597 169.19 48.7397V41.5195C169.19 41.0995 168.85 40.7598 168.43 40.7598Z" fill="white"/>
<path d="M152.69 49.4798C153.11 49.4798 153.45 49.1395 153.45 48.7195V46.1096C153.54 45.3096 153.32 44.4996 152.83 43.8596C152.36 43.4396 151.73 43.2494 151.11 43.3694C150.78 43.3694 150.51 43.6395 150.48 43.9695C150.48 44.2995 150.75 44.5696 151.08 44.5696C151.12 44.5696 151.93 44.6094 151.93 46.0994V48.7097C151.93 49.1297 152.27 49.4695 152.69 49.4695" fill="white"/>
<path d="M164.57 43.4395C164.35 43.3895 164.13 43.3594 163.9 43.3594C163.13 43.3594 162.4 43.6695 161.85 44.2095C161.1 44.9295 160.76 45.9893 160.95 47.0093C161.04 48.0693 161.72 48.9791 162.71 49.3691C163.65 49.7191 164.69 49.6891 165.6 49.2891C165.97 49.1791 166.29 48.9494 166.5 48.6294C166.63 48.4194 166.62 48.1495 166.47 47.9595C166.34 47.7595 166.1 47.6795 165.87 47.7495C165.73 47.7895 165.59 47.8492 165.46 47.9292L165.4 47.9595C164.83 48.2595 164.16 48.3592 163.53 48.2192C162.93 48.0792 162.5 47.5695 162.45 46.9595C162.42 46.5595 162.45 46.1693 162.51 45.7793C162.6 45.0693 163.19 44.5393 163.91 44.5293C164.59 44.5793 165.14 45.1193 165.19 45.7993V45.9893H163.78C163.53 45.9893 163.33 46.1895 163.33 46.4395C163.33 46.6895 163.53 46.8892 163.78 46.8892H166.07C166.25 46.9092 166.42 46.8493 166.56 46.7393C166.65 46.6193 166.69 46.4593 166.67 46.2993C166.67 45.9693 166.61 45.6393 166.52 45.3193C166.24 44.3893 165.5 43.6692 164.56 43.4292" fill="white"/>
<path d="M172.43 48.34C173.05 47.29 173.14 46.01 172.68 44.88L172.84 44.8L172.67 44.86C172.33 44.09 171.57 43.5898 170.72 43.5998C170.65 43.5998 170.57 43.6 170.5 43.61C170.16 43.61 169.89 43.8799 169.87 44.2199C169.87 44.5499 170.14 44.82 170.48 44.82C170.77 44.82 171.04 44.9398 171.22 45.1598C171.54 45.6998 171.64 46.3399 171.48 46.9499C171.43 47.4299 171.15 47.8497 170.72 48.0797C170.65 48.1097 170.58 48.1398 170.51 48.1598H170.47C170.41 48.1598 170.35 48.1801 170.3 48.1901C169.93 48.3001 169.72 48.7 169.83 49.07C169.92 49.37 170.2 49.57 170.51 49.57H170.55C171.34 49.5 172.05 49.0397 172.42 48.3297" fill="white"/>
<path d="M148.86 37.9199C148.44 37.9199 148.1 38.2597 148.1 38.6797C148.1 39.0997 148.44 39.4399 148.86 39.4399C149.28 39.4399 149.62 39.0997 149.62 38.6797C149.62 38.2597 149.28 37.9199 148.86 37.9199Z" fill="white"/>
<path d="M158.44 37.9199C158.02 37.9199 157.68 38.2597 157.68 38.6797C157.68 39.0997 158.02 39.4399 158.44 39.4399C158.86 39.4399 159.2 39.0997 159.2 38.6797C159.2 38.2597 158.86 37.9199 158.44 37.9199Z" fill="white"/>
<path d="M160.83 37.9199C160.41 37.9199 160.07 38.2597 160.07 38.6797C160.07 39.0997 160.41 39.4399 160.83 39.4399C161.25 39.4399 161.59 39.0997 161.59 38.6797C161.59 38.2597 161.25 37.9199 160.83 37.9199Z" fill="white"/>
<path d="M167.9 26.5996C167.48 26.5996 167.14 26.9399 167.14 27.3599C167.14 27.7799 167.48 28.1196 167.9 28.1196C168.32 28.1196 168.66 27.7799 168.66 27.3599C168.66 26.9399 168.32 26.5996 167.9 26.5996Z" fill="white"/>
</svg>
