<svg width="221" height="44" viewBox="0 0 221 44" fill="none" xmlns="http://www.w3.org/2000/svg">
<path fill-rule="evenodd" clip-rule="evenodd" d="M99.9399 18.2002H96.4099V21.7305H103.46V28.7305H96.4099L92.9099 28.7603V32.2603H103.46L106.96 28.7305V18.2104H99.9299L99.9399 18.2002Z" fill="#006937"/>
<path fill-rule="evenodd" clip-rule="evenodd" d="M167.12 11.1504L167.15 14.6802V28.7305V32.2305H170.65V28.7305V11.1504H167.12Z" fill="#006937"/>
<path fill-rule="evenodd" clip-rule="evenodd" d="M161.41 14.6704V28.7202H159.21V18.1704H155.71V28.7202H152.21V18.2002H148.68V28.7305H145.15V18.2002H141.65V28.7305H128.92V23.9302L128.89 21.7002H139.44V18.2002H128.89L125.39 21.7002V28.7305H123.19V21.7002V18.2002H112.64L109.11 21.7305L109.14 25.2305V32.2603H116.17L119.67 28.7305H112.64V21.7305H116.17L119.68 21.7002V28.7305L119.71 32.2603V35.7603H116.18L112.65 35.79H109.15V39.29H119.7L123.2 35.7603V32.2603H150.43L152.21 32.2305H161.41L164.94 28.7305V11.1504H161.41V14.6802V14.6704Z" fill="#006937"/>
<path d="M80.1599 11.2002H76.6599V14.7002H80.1599V11.2002Z" fill="#006937"/>
<path d="M73.1299 11.2002H69.6299V14.7002H73.1299V11.2002Z" fill="#006937"/>
<path d="M90.6799 35.7803H87.1799V39.2803H90.6799V35.7803Z" fill="#006937"/>
<path d="M83.6899 35.7803H80.1899V39.2803H83.6899V35.7803Z" fill="#006937"/>
<path fill-rule="evenodd" clip-rule="evenodd" d="M87.1799 21.7305V28.7305H80.1799V21.7002V18.2002H69.6599L66.1599 21.7002V32.2202H73.1599L76.6599 28.7202V32.2202H87.1599L90.6599 28.7202V21.6904V18.1904H87.1599V21.7202H87.1899L87.1799 21.7305ZM76.6599 28.7505H69.6599V21.7202H76.6599V28.7505Z" fill="#006937"/>
<path d="M22.1801 32.8898L20.4601 34.0001L18.92 32.2799C19.95 31.6999 21.01 31.1101 22.05 30.5001C23.77 29.4901 25.5001 28.4298 27.2501 27.4298C27.1901 27.3998 27.1401 27.37 27.0901 27.32C24.0201 25.5 20.7901 23.9601 17.4401 22.7101C14.7401 21.8001 11.9101 21.34 9.06006 21.36L18.9 32.2301C18.61 32.4501 18.3101 32.66 18.0001 32.84C15.6401 34.34 12.9201 35.1701 10.1301 35.2301C12.5701 35.7301 13.6 36.3997 17.16 35.5997C18.33 35.1897 19.4501 34.6501 20.5001 33.9801L28.8 43.15L28.27 29.15C26.23 30.37 24.2101 31.6198 22.2001 32.8898" fill="#006937"/>
<path d="M16.93 21.4904C20.85 22.3404 24.49 24.0902 28.06 25.8102L27.72 16.9606L0.679992 11.5304C0.559992 11.5104 0.439982 11.5906 0.419982 11.7106C0.409982 11.7806 0.420031 11.8505 0.470031 11.9005L9.06 21.3903C11.67 20.9103 14.34 20.9406 16.93 21.5006" fill="#006937"/>
<path d="M58.5001 11.5199L31.41 16.9501L31.0601 25.81C34.6401 24.09 38.2701 22.3401 42.1901 21.4901C44.7901 20.9501 47.4801 20.9201 50.0901 21.4101L58.7101 11.9203C58.8401 11.7303 58.7101 11.4699 58.5001 11.5199Z" fill="#006937"/>
<path d="M32.3099 15.2305C32.8799 12.9305 32.89 10.5305 32.34 8.23047C33.31 9.04047 34.15 10.0003 34.83 11.0703C35.42 12.0303 35.86 13.0804 36.13 14.1704C36.37 12.8604 36.2799 11.5205 35.8899 10.2505C35.5199 9.04049 34.8899 7.92023 34.0299 6.99023C35.0899 7.48023 36.08 8.11012 36.97 8.87012C38 9.73012 38.9399 10.6905 39.7799 11.7305C39.5399 10.3105 38.9899 8.96027 38.1599 7.78027C36.9099 6.24027 35.15 5.18006 33.2 4.81006C34.22 4.67006 35.2699 4.72043 36.2699 4.94043C37.6499 5.26043 38.96 5.84016 40.11 6.66016C39.2 5.31016 37.95 4.22025 36.48 3.51025C35.03 2.89025 33.43 2.7002 31.87 2.9502C31.97 2.7502 32.0999 2.57041 32.2699 2.42041C32.5199 2.19041 32.81 1.99033 33.12 1.84033C32.52 1.71033 31.8999 1.73041 31.3199 1.92041C30.9499 2.07041 30.5999 2.27027 30.2899 2.53027C30.2599 2.32027 30.2099 2.05006 30.1599 1.81006C29.9999 1.35006 29.7899 0.910469 29.5499 0.480469C29.3199 0.910469 29.1099 1.35006 28.9399 1.81006C28.8899 2.08006 28.8299 2.31027 28.8099 2.53027C28.5099 2.26027 28.1599 2.06041 27.7799 1.92041C27.1999 1.73041 26.57 1.71033 25.98 1.84033C26.29 1.99033 26.57 2.19041 26.83 2.42041C26.99 2.58041 27.12 2.7602 27.23 2.9502C25.67 2.6902 24.07 2.89025 22.62 3.51025C21.15 4.22025 19.9 5.31016 18.99 6.66016C20.15 5.84016 21.45 5.25043 22.83 4.94043C23.84 4.70043 24.8799 4.66006 25.8999 4.81006C23.9499 5.19006 22.1999 6.24002 20.9399 7.77002C20.0999 8.94002 19.5499 10.3002 19.3199 11.7202C20.1599 10.6802 21.1 9.72035 22.13 8.86035C23.02 8.10035 24.0099 7.47047 25.0699 6.98047C24.1999 7.91047 23.57 9.02023 23.21 10.2402C22.82 11.5102 22.74 12.8502 22.97 14.1602C23.26 13.0702 23.6899 12.0301 24.2699 11.0601C24.9099 9.96006 25.76 9.00021 26.76 8.22021C26.21 10.5202 26.2099 12.9202 26.7899 15.2202C27.1799 13.5502 27.6799 11.9 28.2699 10.29C28.5699 9.49004 28.98 8.74006 29.49 8.06006C30 8.74006 30.41 9.49004 30.71 10.29C31.37 11.89 31.8999 13.5402 32.2999 15.2202" fill="#006937"/>
<path d="M32.0699 27.3506C32.0099 27.3806 31.9599 27.4109 31.9099 27.4609C33.6299 28.4709 35.36 29.5308 37.11 30.5308C38.14 31.1408 39.2 31.7205 40.24 32.3105L38.7 34.0308L36.98 32.9209C34.99 31.6509 32.9799 30.4007 30.9399 29.1807L30.4099 43.1807L38.71 34.0107C39.75 34.6907 40.8699 35.2409 42.0499 35.6309C45.5999 36.4309 46.64 35.7607 49.08 35.2607C46.29 35.1807 43.57 34.3606 41.21 32.8706C40.89 32.7006 40.5899 32.4907 40.3099 32.2607L50.1499 21.3906C47.3399 21.5006 44.4199 21.6807 41.7699 22.7407C38.4199 24.0007 35.18 25.5406 32.09 27.3506" fill="#006937"/>
<path fill-rule="evenodd" clip-rule="evenodd" d="M214.41 10.8301C220.91 17.4001 220.85 27.9905 214.28 34.4805C211.45 37.2805 207.7 38.98 203.73 39.27C199.59 39.57 195.48 38.3002 192.22 35.7202L192.19 35.7505C198.93 42.0505 209.49 41.6902 215.79 34.9502C222.09 28.2102 221.73 17.6501 214.99 11.3501C214.8 11.1701 214.6 11.0001 214.4 10.8301M184.88 29.8403C184.35 30.1303 184.22 30.58 184.51 31.27C184.78 31.91 185.15 32.1503 185.57 32.0103C185.89 31.8803 185.97 31.5903 185.84 30.8403L185.79 30.5503C185.66 30.1003 185.64 29.6304 185.71 29.1704C185.77 28.8404 186 28.5602 186.32 28.4502C187.09 28.1602 187.78 28.6402 188.23 29.7002C188.68 30.8402 188.44 31.6903 187.54 32.0903L187.3 31.5303C187.94 31.2603 188.1 30.6801 187.75 29.8301C187.48 29.1401 187.03 28.8503 186.58 29.0303C186.21 29.1903 186.13 29.5103 186.26 30.3003L186.31 30.6201L186.36 30.8901C186.47 31.2201 186.48 31.5604 186.41 31.9004C186.33 32.2004 186.12 32.4501 185.83 32.5601C185.11 32.8301 184.45 32.4302 184.05 31.4702C183.65 30.4402 183.86 29.6403 184.66 29.3203L184.87 29.8203L184.88 29.8403ZM184.37 23.8003L186.89 21.6802V22.4805L184.74 24.2603L185.43 25.0303L186.94 25.0005V25.6401L182.64 25.7505L182.61 25.1401L184.31 25.1104H184.79L184.63 24.9502L184.47 24.79L182.56 22.7202L182.53 21.9004L184.36 23.8101L184.37 23.8003ZM186.28 17.1401L187.92 17.7202L187.71 18.3003L186.04 17.7202L183.07 18.5903L183.34 17.8701L185.2 17.3701L185.44 17.3203C185.55 17.2903 185.6 17.2702 185.73 17.2402C185.61 17.1102 185.5 16.9703 185.41 16.8203L184.27 15.2803L184.51 14.5903L186.29 17.1401H186.28ZM189.2 9.22021L188.3 10.3301L191 12.5601L190.34 13.3604L187.64 11.1304L186.74 12.2402L186.13 11.7402L188.6 8.72021L189.22 9.22021H189.2ZM195 5.16016L192.83 6.43018L193.28 7.23047L195.27 6.06006L195.64 6.7002L193.65 7.87012L194.18 8.77002L196.38 7.47021L196.78 8.16016L193.68 9.99023L191.51 6.28027L194.56 4.48047L195.01 5.17041L195 5.16016ZM203.33 6.83008L202.22 6.91016L201.66 5.98047L199.91 6.25049L199.64 7.31006L198.58 7.58008L199.72 2.89014L200.78 2.7002L203.33 6.83008ZM200.86 4.6001C200.68 4.3301 200.53 4.03021 200.41 3.72021C200.36 4.01021 200.33 4.2502 200.22 4.7002L200.03 5.52002L201.28 5.31006L200.86 4.6001ZM210.22 8.21045L209.32 7.87012L209.66 6.57031C209.69 6.41031 209.77 6.23045 209.85 5.96045C209.93 5.69045 209.98 5.48031 210.04 5.32031C210.09 5.14031 210.15 4.96004 210.23 4.79004L210.34 4.50049C210.07 4.92049 210 5.08018 209.76 5.43018C209.65 5.59018 209.57 5.70029 209.49 5.80029L208.27 7.52002L207.47 7.31006L207.2 5.27002C207.17 5.16002 207.17 5.00031 207.15 4.82031C207.13 4.61031 207.13 4.4102 207.13 4.2002V3.67041L207.02 4.2002C206.89 4.7602 206.83 5.02018 206.68 5.68018L206.34 7.06006L205.39 6.90039L206.48 2.71045L207.91 2.98047L208.12 4.97021C208.17 5.44021 208.18 5.91037 208.17 6.38037C208.33 6.06037 208.41 5.96016 208.57 5.66016C208.7 5.45016 208.81 5.32016 208.89 5.16016L210.03 3.54004L211.41 3.99023L210.24 8.21045H210.22ZM202 16.4805C201.47 16.9305 200.46 17.9101 199.46 18.8901L198.32 19.9805C197.4 19.8105 196.47 19.7204 195.54 19.7104C193.45 19.7104 191.51 20.2904 190.66 21.1704C190.35 21.4604 190.18 21.8603 190.18 22.2803C190.21 23.2903 191.37 23.7902 191.72 23.9502C193.4 24.6602 195.34 24.41 196.78 23.29C197.79 22.53 198.74 21.7103 199.64 20.8203C200.3 20.9803 201.05 21.1604 201.87 21.4004L202.64 21.6401C201.69 22.5901 200.68 23.5804 199.75 24.4004L199.67 24.4805C198.37 25.5905 197.47 26.4204 196.12 26.7104C195.51 26.8804 194.87 26.8301 194.29 26.5801L194.24 26.6304C194.98 27.3104 195.99 27.6403 197 27.5103C198.22 27.4003 199.57 26.6603 201 25.3403L202.91 23.4604L204.26 22.1104L206.96 22.9102L207.01 22.9404L205.34 24.5601L203.91 25.9902C202.94 27.0002 201.89 27.93 200.78 28.77C199.71 29.64 198.43 30.1901 197.07 30.3901C196.38 30.4501 195.68 30.33 195.06 30.02L194.98 30.0503C195.81 30.9003 196.95 31.3804 198.13 31.3804C199.88 31.3304 201.39 30.5001 203.8 28.3101C204.89 27.3001 205.97 26.1904 206.93 25.2104L208.71 23.4102C209.81 23.6702 210.94 23.7805 212.08 23.7505C213.78 23.7005 215.21 22.9302 215.21 21.9702C215.18 21.4202 214.84 20.9202 214.33 20.7002C213.71 20.3002 213 20.0903 212.26 20.0903C210.8 20.1703 209.41 20.7603 208.34 21.7603L207.46 22.5601L207.14 22.4502L204.67 21.7305C205.41 21.0405 206.02 20.4602 206.58 19.9502C207.6 18.9902 208.9 18.3802 210.29 18.2002C211.04 18.1102 211.8 18.22 212.49 18.52L212.54 18.4702C211.69 17.6902 210.57 17.2603 209.41 17.2803C207.97 17.3503 206.59 17.9003 205.49 18.8403C204.61 19.5803 203.78 20.3805 203 21.2305L201.75 20.8604L201.46 20.7505L200.13 20.3501L200.9 19.6304C201.78 18.7804 202.62 17.9304 203.29 17.3804C205.68 15.3904 207.16 15.1301 208.19 15.1001C209.14 15.0401 210.08 15.3003 210.87 15.8203L210.92 15.77C209.89 14.69 208.46 14.1004 206.97 14.1504C205.09 14.3704 203.34 15.2003 201.99 16.5103M192.68 23.6104C191.91 23.5604 191.54 23.2702 191.54 22.6602C191.54 22.5802 191.59 20.7002 195.91 20.4902C196.54 20.4502 197.17 20.46 197.79 20.54L197.31 20.9604L197.04 21.2305C195.98 22.1605 194.23 23.7201 192.67 23.6201M210.12 22.1001C211.37 21.2801 212.4 20.8001 213.04 20.8301C213.41 20.8301 213.86 20.9604 213.86 21.4404C213.86 21.9204 213.41 22.3202 212.48 22.6602C211.4 22.9502 210.27 23.0201 209.16 22.8701C209.46 22.5901 209.78 22.3301 210.11 22.1001M212 4.76025C212.15 4.40025 212.57 4.24014 212.93 4.39014C213.29 4.54014 213.45 4.96031 213.3 5.32031C213.15 5.67031 212.76 5.83018 212.41 5.68018C212.4 5.68018 212.38 5.67016 212.37 5.66016C212.03 5.54016 211.85 5.17008 211.97 4.83008C211.97 4.81008 211.99 4.78025 212 4.76025ZM213.17 5.32031C213.33 5.03031 213.22 4.66049 212.93 4.50049C212.64 4.34049 212.27 4.45023 212.11 4.74023C211.95 5.03023 212.06 5.40006 212.35 5.56006C212.61 5.73006 212.96 5.65014 213.13 5.39014C213.14 5.37014 213.16 5.34031 213.17 5.32031ZM212.77 5.53027L212.64 5.48047L212.61 5.06006L212.48 4.98047L212.29 5.27002L212.18 5.22021L212.55 4.53027L212.84 4.69043C212.97 4.77043 213.08 4.88047 213 4.98047C212.94 5.09047 212.8 5.13031 212.69 5.07031C212.69 5.07031 212.69 5.07031 212.68 5.07031L212.76 5.55029L212.77 5.53027ZM212.67 4.9502C212.75 5.0002 212.91 5.11047 212.94 4.98047C212.97 4.90047 212.89 4.85004 212.81 4.79004L212.62 4.68018L212.51 4.87012L212.67 4.9502Z" fill="#263778"/>
</svg>
